<svg width="20" height="20" viewBox="0 0 20 20" fill="none" xmlns="http://www.w3.org/2000/svg">
    <path d="M5.83337 7.5L10 10.4167L14.1667 7.5" stroke="#252B5C" stroke-width="1.6" stroke-linecap="round" stroke-linejoin="round"/>
    <path d="M1.66669 14.1666V5.83329C1.66669 5.39127 1.84228 4.96734 2.15484 4.65478C2.4674 4.34222 2.89133 4.16663 3.33335 4.16663H16.6667C17.1087 4.16663 17.5326 4.34222 17.8452 4.65478C18.1578 4.96734 18.3334 5.39127 18.3334 5.83329V14.1666C18.3334 14.6087 18.1578 15.0326 17.8452 15.3451C17.5326 15.6577 17.1087 15.8333 16.6667 15.8333H3.33335C2.89133 15.8333 2.4674 15.6577 2.15484 15.3451C1.84228 15.0326 1.66669 14.6087 1.66669 14.1666Z" stroke="#252B5C" stroke-width="1.6"/>
</svg>
