<svg width="50" height="50" viewBox="0 0 50 50" fill="none" xmlns="http://www.w3.org/2000/svg">
    <g clip-path="url(#clip0_568_5726)">
        <path d="M16.6486 15.5411L11.7089 15.548L11.6953 7.22383C11.6952 7.16845 11.7061 7.1136 11.7272 7.06241C11.7483 7.01122 11.7793 6.96469 11.8184 6.92548C11.8575 6.88627 11.904 6.85515 11.9551 6.83388C12.0062 6.81262 12.061 6.80164 12.1164 6.80156L16.2128 6.7958C16.2682 6.79572 16.323 6.80655 16.3742 6.82767C16.4254 6.84879 16.4719 6.87979 16.5111 6.91889C16.5503 6.958 16.5815 7.00444 16.6027 7.05557C16.624 7.1067 16.635 7.16152 16.6351 7.21689L16.6486 15.5411Z" fill="#FFB125"/>
        <path d="M16.6352 7.21689C16.6351 7.16152 16.6241 7.1067 16.6028 7.05557C16.5816 7.00444 16.5504 6.958 16.5112 6.91889C16.472 6.87979 16.4255 6.84879 16.3743 6.82767C16.3231 6.80655 16.2683 6.79572 16.2129 6.7958L13.7705 6.79922C13.9871 6.8166 14.1581 6.9958 14.1585 7.21689L14.1721 15.5411L11.709 15.5445V15.548L16.6487 15.541L16.6352 7.21689Z" fill="#FF901D"/>
        <path d="M24.816 6.64492L11.584 19.11L11.6104 38.0598C11.6108 38.2998 11.7065 38.5299 11.8764 38.6994C12.0464 38.8689 12.2767 38.964 12.5168 38.9637L37.2054 38.9292C37.4454 38.9289 37.6755 38.8332 37.845 38.6632C38.0145 38.4932 38.1096 38.2629 38.1093 38.0228L38.0828 19.073L24.816 6.64492Z" fill="#E1EFFB"/>
        <path d="M38.0834 19.0729L24.8167 6.64492L22.6348 8.70039L33.7074 19.0729L33.7339 38.0227C33.7341 38.1416 33.7108 38.2593 33.6655 38.3692C33.6201 38.4791 33.5536 38.5789 33.4697 38.6631C33.3858 38.7473 33.2861 38.8141 33.1763 38.8597C33.0666 38.9054 32.9489 38.9289 32.8301 38.9291H37.2062C37.4462 38.9288 37.6763 38.8331 37.8458 38.6631C38.0153 38.4931 38.1104 38.2628 38.1101 38.0227L38.0834 19.0729Z" fill="#CCDFED"/>
        <path d="M42.7513 23.2485C42.2883 23.2497 41.8425 23.0738 41.5051 22.7568L24.8171 7.12402L8.17284 22.8034C7.44129 23.4926 6.28963 23.4581 5.60067 22.7267C4.91151 21.9952 4.94588 20.8436 5.67743 20.1545L23.5659 3.30303C24.2652 2.64414 25.3564 2.64268 26.0576 3.29951L43.9931 20.101C44.7265 20.788 44.7641 21.9395 44.0769 22.6728C43.9072 22.8545 43.7019 22.9994 43.4739 23.0984C43.2458 23.1974 42.9999 23.2485 42.7513 23.2485Z" fill="#FF4C4C"/>
        <path d="M44.0779 20.4844C43.9081 20.666 43.7029 20.8108 43.4748 20.9098C43.2468 21.0088 43.0008 21.0599 42.7522 21.06C42.2893 21.0611 41.8434 20.8852 41.506 20.5683L24.818 4.93535L8.17377 20.6147C7.44223 21.3039 6.29056 21.2694 5.6016 20.538C5.5562 20.4896 5.5135 20.4387 5.47367 20.3856C4.94935 21.0807 4.98451 22.0716 5.6016 22.7266C6.29047 23.458 7.44223 23.4925 8.17377 22.8033L24.818 7.12402L41.506 22.7568C41.8434 23.0738 42.2893 23.2497 42.7522 23.2485C43.0008 23.2485 43.2468 23.1974 43.4748 23.0984C43.7029 22.9994 43.9081 22.8546 44.0779 22.673C44.6919 22.0176 44.7254 21.0291 44.2026 20.3357C44.1637 20.3875 44.122 20.4371 44.0779 20.4844Z" fill="#F33939"/>
        <path d="M28.2406 22.267L21.4384 22.2765C21.2851 22.2767 21.1382 22.3378 21.03 22.4463C20.9218 22.5549 20.8611 22.7019 20.8613 22.8552L20.8838 38.9519L28.8418 38.9407L28.8193 22.844C28.8191 22.6908 28.758 22.5439 28.6495 22.4357C28.541 22.3275 28.3939 22.2668 28.2406 22.267Z" fill="#2D5871"/>
        <path d="M28.8184 22.8441C28.8181 22.6909 28.757 22.544 28.6485 22.4358C28.54 22.3276 28.3929 22.2669 28.2396 22.2671L24.3965 22.2725C24.5138 22.3092 24.6164 22.3825 24.6892 22.4815C24.7621 22.5806 24.8015 22.7003 24.8017 22.8232L24.8241 38.9465L28.8408 38.9408L28.8184 22.8441Z" fill="#1D4859"/>
        <path d="M45.5961 30.8157L35.5701 37.5256L32.5821 37.3579L32.4651 36.1818C32.291 34.4312 30.9431 33.0261 29.2011 32.7796L21.1953 31.8578C19.3485 31.5965 17.5704 30.9776 15.9604 30.0358C13.7624 28.75 11.2618 28.0723 8.71533 28.0724H2.94336V41.2478L18.1985 47.0246C18.7751 47.1874 19.3806 47.2361 19.9723 47.1426L19.9829 47.1409L35.3413 44.9271C36.5245 44.7382 37.6367 44.2398 38.5652 43.4825L48.4916 34.5549C49.3824 33.7639 49.5476 32.4345 48.8773 31.4494C48.1441 30.3719 46.6781 30.0887 45.5961 30.8157Z" fill="#FED9A8"/>
        <path d="M49.0084 31.6685L39.197 39.9274C38.2685 40.6847 36.7249 41.1829 35.5417 41.3719L19.983 42.4841C19.9795 42.4847 19.9759 42.4852 19.9724 42.4857C19.3807 42.5792 18.7751 42.5305 18.1986 42.3678L2.94336 36.5909V41.248L18.1985 47.0248C18.4862 47.1065 18.7814 47.1585 19.0797 47.1799C19.154 47.1851 19.2285 47.1883 19.303 47.1895C19.5306 47.1932 19.7581 47.177 19.9829 47.1411L35.3413 44.9273C35.7832 44.8566 36.217 44.7426 36.6365 44.5868C37.3357 44.3272 37.9874 43.9542 38.5653 43.4827L48.4917 34.5551C49.3182 33.8211 49.5188 32.6242 49.0084 31.6685Z" fill="#F4C892"/>
        <path d="M4.88848 45.7231H2.60469C1.55986 45.7231 0.712891 44.8762 0.712891 43.8314V26.9309C0.712891 25.886 1.55986 25.0391 2.60469 25.0391H4.88848C5.9333 25.0391 6.78027 25.886 6.78027 26.9309V43.8314C6.78027 44.8762 5.9333 45.7231 4.88848 45.7231Z" fill="#2D5871"/>
        <path d="M4.88916 25.0391H2.60537C2.47695 25.0391 2.35166 25.0521 2.23047 25.0766C3.09561 25.2506 3.74727 26.0145 3.74727 26.9309V43.8314C3.74727 44.7478 3.09561 45.5116 2.23047 45.6856C2.35166 45.7101 2.47705 45.7231 2.60537 45.7231H4.88916C5.93398 45.7231 6.78096 44.8762 6.78096 43.8314V26.9309C6.78096 25.886 5.93398 25.0391 4.88916 25.0391Z" fill="#1D4859"/>
        <path d="M49.468 31.0481C48.5169 29.6505 46.6017 29.2806 45.1997 30.2228L38.8188 34.4931L38.8003 21.2011L41.0171 23.2777C41.4859 23.7182 42.1052 23.963 42.7484 23.9622H42.7522C43.0982 23.9612 43.4403 23.8896 43.7576 23.7519C44.0749 23.6141 44.3608 23.413 44.5978 23.1609C45.0604 22.6671 45.303 22.0228 45.281 21.3464C45.2589 20.67 44.9747 20.0428 44.4809 19.5802L40.2782 15.6433C40.1393 15.5186 39.957 15.4533 39.7705 15.4614C39.5841 15.4695 39.4082 15.5504 39.2806 15.6866C39.1529 15.8228 39.0837 16.0036 39.0878 16.1902C39.0919 16.3768 39.1689 16.5544 39.3023 16.685L43.505 20.6219C43.6113 20.7209 43.6969 20.84 43.7569 20.9724C43.8168 21.1047 43.8499 21.2476 43.8543 21.3929C43.8594 21.5381 43.8357 21.6828 43.7845 21.8188C43.7333 21.9548 43.6556 22.0792 43.556 22.185C43.4531 22.2957 43.3283 22.384 43.1896 22.4442C43.0509 22.5044 42.9013 22.5352 42.7501 22.5348H42.7484C42.4669 22.5348 42.1986 22.4287 41.9929 22.2359L38.5724 19.0317L38.5722 19.0315L25.3051 6.60312C25.1726 6.479 24.9977 6.41005 24.8162 6.4103C24.6346 6.41056 24.46 6.48 24.3278 6.60449L11.0961 19.0691L11.0959 19.0693L7.6835 22.2839C7.57793 22.3837 7.45367 22.4616 7.31786 22.5132C7.18205 22.5647 7.03738 22.5889 6.89219 22.5843C6.74694 22.5803 6.60391 22.5476 6.4714 22.488C6.33888 22.4284 6.21952 22.3431 6.12021 22.237C6.0203 22.1316 5.9423 22.0073 5.89074 21.8715C5.83917 21.7357 5.81507 21.591 5.81982 21.4458C5.82376 21.3006 5.85646 21.1576 5.91603 21.0251C5.97561 20.8925 6.06087 20.7732 6.16689 20.6738L24.0553 3.82256C24.4793 3.42305 25.1445 3.42207 25.5696 3.82051L36.0352 13.6244C36.1036 13.6885 36.1839 13.7385 36.2716 13.7715C36.3593 13.8045 36.4527 13.8199 36.5464 13.8169C36.64 13.8138 36.7322 13.7924 36.8176 13.7537C36.9029 13.715 36.9799 13.6599 37.0439 13.5915C37.108 13.5231 37.158 13.4428 37.191 13.355C37.224 13.2673 37.2395 13.174 37.2364 13.0803C37.2334 12.9866 37.2119 12.8945 37.1732 12.8091C37.1345 12.7237 37.0794 12.6468 37.011 12.5827L26.5456 2.77881C25.5717 1.86631 24.0479 1.86836 23.0766 2.78359L17.3501 8.17813L17.3485 7.21592C17.3488 7.06676 17.3194 6.91903 17.2621 6.78131C17.2048 6.64358 17.1208 6.51859 17.0148 6.41357C16.9097 6.30814 16.7847 6.22457 16.6472 6.16769C16.5096 6.1108 16.3621 6.08172 16.2132 6.08213H16.2115L12.1151 6.08789C11.966 6.08769 11.8183 6.11707 11.6805 6.17435C11.5428 6.23163 11.4178 6.31566 11.3128 6.42158C11.2072 6.52693 11.1235 6.65219 11.0666 6.7901C11.0098 6.928 10.9808 7.07583 10.9814 7.225L10.9928 14.1671L5.18818 19.6352C4.69561 20.0991 4.41328 20.7271 4.39307 21.4035C4.37285 22.0799 4.61729 22.7236 5.08125 23.216C5.54512 23.7086 6.17314 23.991 6.84961 24.0112C6.87549 24.012 6.90137 24.0124 6.92725 24.0124C7.5752 24.0124 8.18877 23.7692 8.6623 23.323L10.8741 21.2394L10.8829 27.5178C10.1654 27.4126 9.44113 27.3595 8.71592 27.3589H7.49473V26.931C7.49473 25.4943 6.32588 24.3255 4.88926 24.3255H2.60547C1.16885 24.3254 0 25.4941 0 26.9309V38.1143C0 38.3035 0.0751902 38.4851 0.20903 38.6189C0.342869 38.7527 0.524394 38.8279 0.713672 38.8279C0.902949 38.8279 1.08447 38.7527 1.21831 38.6189C1.35215 38.4851 1.42734 38.3035 1.42734 38.1143V26.9309C1.42734 26.2813 1.95586 25.7527 2.60547 25.7527H4.88916C5.53877 25.7527 6.06729 26.2813 6.06729 26.9309V43.8313C6.06729 44.481 5.53877 45.0095 4.88916 45.0095H2.60547C1.95586 45.0095 1.42734 44.481 1.42734 43.8313V42.5825C1.42734 42.3932 1.35215 42.2117 1.21831 42.0779C1.08447 41.944 0.902949 41.8688 0.713672 41.8688C0.524394 41.8688 0.342869 41.944 0.20903 42.0779C0.0751902 42.2117 0 42.3932 0 42.5825L0 43.8313C0 45.268 1.16885 46.4368 2.60547 46.4368H4.88916C6.32578 46.4368 7.49463 45.2681 7.49463 43.8313V43.7344L17.9462 47.6922C17.9655 47.6995 17.9852 47.706 18.0051 47.7115C18.4595 47.8398 18.9137 47.9042 19.3621 47.9042C19.6047 47.9042 19.8456 47.8854 20.0841 47.8477L35.4436 45.6336L35.4543 45.6319C36.7616 45.4228 37.9905 44.8721 39.0168 44.0356C39.0257 44.0284 39.0345 44.0209 39.043 44.0132L48.9659 35.0886C50.1215 34.0627 50.3372 32.3257 49.468 31.0481ZM15.9216 7.50996L15.9249 9.5207L12.4179 12.8244L12.4092 7.51475L15.9216 7.50996ZM12.3106 27.7946L12.2996 19.8964L24.8185 8.10313L37.371 19.8621L37.3928 35.4474L35.3722 36.7997L33.2324 36.6797L33.1759 36.1113C33.0814 35.1432 32.677 34.2313 32.0228 33.5114C31.3687 32.7914 30.4997 32.3017 29.545 32.115L29.5321 22.8431C29.5312 22.1315 28.9519 21.5533 28.2404 21.5533H28.2387L21.4365 21.5629C21.2668 21.5627 21.0988 21.5961 20.9421 21.6612C20.7854 21.7264 20.6432 21.822 20.5237 21.9425C20.4036 22.0623 20.3084 22.2047 20.2437 22.3616C20.1789 22.5184 20.146 22.6866 20.1467 22.8563L20.158 30.9403C18.809 30.6322 17.5152 30.1195 16.3213 29.42C16.1713 29.3324 16.0198 29.2474 15.8668 29.165C15.8072 29.1329 15.7467 29.1027 15.6866 29.0714C15.5937 29.0229 15.5009 28.974 15.4069 28.9274C15.3321 28.8903 15.2564 28.8552 15.1811 28.8193C15.1011 28.7813 15.0212 28.743 14.9406 28.7063C14.8586 28.6691 14.7759 28.6337 14.6933 28.5979C14.6178 28.5653 14.5423 28.5325 14.4663 28.5012C14.3813 28.4661 14.2959 28.4324 14.2104 28.3989C14.1345 28.3692 14.0585 28.3397 13.9822 28.3112C13.8976 28.2796 13.8125 28.249 13.7272 28.219C13.4795 28.1316 13.2294 28.0507 12.9773 27.9766C12.9017 27.9543 12.8261 27.932 12.75 27.9109C12.6506 27.8835 12.5509 27.8572 12.451 27.8318C12.4042 27.8198 12.3577 27.8063 12.3106 27.7946ZM21.5743 22.99L28.105 22.9809L28.1175 31.9364L22.1482 31.2492L21.5858 31.1845L21.5743 22.99ZM48.0149 34.0244L38.1018 42.9402C37.2745 43.6107 36.2858 44.0525 35.2345 44.2217L19.8816 46.4348L19.8721 46.4362L19.8614 46.4379C19.3963 46.5115 18.9119 46.4805 18.4216 46.3459L7.49473 42.208V28.7861H8.71592C9.79035 28.7865 10.861 28.914 11.9055 29.1658C12.029 29.1956 12.1522 29.2263 12.2749 29.2595L12.307 29.2685C12.43 29.3021 12.5524 29.3375 12.6745 29.3745C12.6964 29.3812 12.7184 29.3877 12.7401 29.3944C12.87 29.4346 12.9993 29.4765 13.1279 29.5204L13.1677 29.5343C13.4504 29.6319 13.7298 29.7388 14.0055 29.8548C14.1396 29.9111 14.2728 29.9696 14.4051 30.0303C14.5297 30.0875 14.6534 30.1469 14.7764 30.2079C14.7908 30.215 14.8054 30.2221 14.8198 30.2293C14.9399 30.2894 15.0591 30.3516 15.1775 30.4152C15.1999 30.4272 15.2222 30.4396 15.2445 30.4517C15.3641 30.5168 15.4829 30.5832 15.6006 30.6521C17.2989 31.6455 19.1478 32.289 21.0958 32.5646C21.102 32.5655 21.108 32.5663 21.1142 32.567L29.1104 33.4876C29.7079 33.5726 30.2675 33.8305 30.7204 34.2294C31.1733 34.6284 31.4996 35.1511 31.6593 35.7331C31.7054 35.9009 31.7378 36.0745 31.7556 36.2525L31.7873 36.5719L16.801 35.2589C16.7076 35.2507 16.6136 35.261 16.5242 35.2892C16.4348 35.3173 16.3518 35.3628 16.28 35.4231C16.135 35.5447 16.0443 35.719 16.0277 35.9075C16.0112 36.0961 16.0703 36.2835 16.1919 36.4285C16.3135 36.5735 16.4878 36.6642 16.6764 36.6808L32.5203 38.0689C32.5241 38.0692 32.5278 38.0691 32.5315 38.0694C32.5353 38.0697 32.5389 38.0703 32.5427 38.0706L35.5307 38.2383C35.544 38.2391 35.5573 38.2394 35.5706 38.2394C35.5848 38.2394 35.5987 38.2371 35.6128 38.2362C35.6287 38.2353 35.6446 38.2347 35.6604 38.2327C35.6817 38.23 35.7025 38.2254 35.7234 38.2208C35.7384 38.2175 35.7534 38.215 35.7681 38.2107C35.7909 38.2042 35.8129 38.1953 35.8351 38.1864C35.847 38.1816 35.8593 38.178 35.871 38.1726C35.9043 38.1571 35.9367 38.1394 35.9676 38.1187L38.5039 36.4213L38.5042 36.421L45.9946 31.4081C46.7482 30.9016 47.777 31.1003 48.2878 31.8511C48.7548 32.5372 48.6389 33.4703 48.0149 34.0244Z" fill="black"/>
    </g>
    <defs>
        <clipPath id="clip0_568_5726">
            <rect width="50" height="50" fill="white"/>
        </clipPath>
    </defs>
</svg>
