<svg width="9" height="9" viewBox="0 0 9 9" fill="none" xmlns="http://www.w3.org/2000/svg">
    <path d="M7.5 3.75C7.5 5.40675 4.5 8.25 4.5 8.25C4.5 8.25 1.5 5.40675 1.5 3.75C1.5 2.95435 1.81607 2.19129 2.37868 1.62868C2.94129 1.06607 3.70435 0.75 4.5 0.75C5.29565 0.75 6.05871 1.06607 6.62132 1.62868C7.18393 2.19129 7.5 2.95435 7.5 3.75Z" fill="#234F68"/>
    <path d="M4.5 4.0499C4.61935 4.0499 4.73381 4.00249 4.8182 3.9181C4.90259 3.83371 4.95 3.71925 4.95 3.5999C4.95 3.48055 4.90259 3.3661 4.8182 3.2817C4.73381 3.19731 4.61935 3.1499 4.5 3.1499C4.38066 3.1499 4.2662 3.19731 4.18181 3.2817C4.09741 3.3661 4.05 3.48055 4.05 3.5999C4.05 3.71925 4.09741 3.83371 4.18181 3.9181C4.2662 4.00249 4.38066 4.0499 4.5 4.0499Z" fill="white" stroke="white" stroke-width="1.25" stroke-linecap="round" stroke-linejoin="round"/>
</svg>
