<svg width="9" height="8" viewBox="0 0 9 8" fill="none" xmlns="http://www.w3.org/2000/svg">
    <path d="M8.43902 2.60632L8.43901 2.6045C8.4402 2.03003 8.21947 1.47767 7.82352 1.06325C7.42935 0.65287 6.89561 0.424224 6.33985 0.424072C6.06257 0.424873 5.78827 0.481761 5.53334 0.591369C5.27824 0.701051 5.04776 0.861285 4.85574 1.06254L4.85419 1.06417L4.85418 1.06416L4.73674 1.18594C4.65691 1.26872 4.54689 1.31553 4.43189 1.31564C4.31688 1.31575 4.20677 1.26915 4.12679 1.18652L4.0089 1.06474L4.00613 1.06187L4.00615 1.06186C3.81474 0.860369 3.5846 0.700032 3.32971 0.590502C3.07482 0.480974 2.80046 0.424516 2.52324 0.424516C2.24602 0.424516 1.97166 0.480974 1.71677 0.590502C1.46189 0.700032 1.23174 0.860369 1.04033 1.06186L1.03846 1.06382C0.219316 1.91516 0.219219 3.29554 1.03851 4.14742L8.43902 2.60632ZM8.43902 2.60632C8.4403 3.18071 8.21973 3.73303 7.82396 4.1475C7.45783 4.52825 7.09914 4.91034 6.74224 5.29053C6.03074 6.04845 5.32636 6.79879 4.58434 7.51573C4.49549 7.59908 4.35502 7.5952 4.27136 7.50836C4.27133 7.50834 4.27131 7.50831 4.27128 7.50828L1.03853 4.14744L8.43902 2.60632Z" fill="white" stroke="white" stroke-width="0.8" stroke-linejoin="round"/>
</svg>
