<svg width="54" height="53" viewBox="0 0 54 53" fill="none" xmlns="http://www.w3.org/2000/svg">
    <path d="M26.9492 53C12.0833 53 0 41.1181 0 26.5C0 11.8819 12.0833 0 26.9492 0C41.8151 0 53.8983 11.8819 53.8983 26.5C53.8983 41.1181 41.8151 53 26.9492 53ZM26.9492 3.69767C14.164 3.69767 3.76035 13.9279 3.76035 26.5C3.76035 39.0721 14.164 49.3023 26.9492 49.3023C39.7343 49.3023 50.138 39.0721 50.138 26.5C50.138 13.9279 39.7343 3.69767 26.9492 3.69767Z" fill="black"/>
    <path d="M26.9492 30.814C25.9214 30.814 25.069 29.9759 25.069 28.9652V16.6396C25.069 15.6289 25.9214 14.7907 26.9492 14.7907C27.977 14.7907 28.8294 15.6289 28.8294 16.6396V28.9652C28.8294 29.9759 27.977 30.814 26.9492 30.814ZM26.9492 38.8256C26.6233 38.8256 26.2974 38.7517 25.9966 38.6284C25.6957 38.5052 25.42 38.3326 25.1693 38.1107C24.9437 37.8642 24.7682 37.6177 24.6428 37.2973C24.5175 37.0014 24.4423 36.681 24.4423 36.3605C24.4423 36.04 24.5175 35.7196 24.6428 35.4238C24.7682 35.128 24.9437 34.8568 25.1693 34.6103C25.42 34.3884 25.6957 34.2159 25.9966 34.0926C26.6069 33.846 27.2915 33.846 27.9018 34.0926C28.2026 34.2159 28.4784 34.3884 28.7291 34.6103C28.9547 34.8568 29.1302 35.128 29.2555 35.4238C29.3809 35.7196 29.4561 36.04 29.4561 36.3605C29.4561 36.681 29.3809 37.0014 29.2555 37.2973C29.1302 37.6177 28.9547 37.8642 28.7291 38.1107C28.4784 38.3326 28.2026 38.5052 27.9018 38.6284C27.601 38.7517 27.2751 38.8256 26.9492 38.8256Z" fill="black"/>
</svg>
