<svg width="20" height="20" viewBox="0 0 20 20" fill="none" xmlns="http://www.w3.org/2000/svg">
    <path fill-rule="evenodd" clip-rule="evenodd" d="M16.9995 9.99988C16.9995 10.1988 16.9205 10.3896 16.7798 10.5302C16.6392 10.6709 16.4484 10.7499 16.2495 10.7499L5.61152 10.7499L9.76952 14.7099C9.90592 14.8493 9.98264 15.0364 9.98341 15.2314C9.98418 15.4264 9.90894 15.6141 9.77365 15.7546C9.63836 15.8951 9.45367 15.9774 9.25874 15.9839C9.06381 15.9905 8.87398 15.9209 8.72952 15.7899L3.22952 10.5399C3.15693 10.4699 3.0992 10.386 3.05976 10.2933C3.02032 10.2005 3 10.1007 3 9.99988C3 9.89907 3.02032 9.79929 3.05976 9.70651C3.0992 9.61373 3.15693 9.52985 3.22952 9.45988L8.72952 4.20988C8.79971 4.13814 8.88359 4.08121 8.97619 4.04247C9.06879 4.00374 9.16822 3.98398 9.26859 3.98438C9.36897 3.98478 9.46824 4.00532 9.56053 4.04478C9.65281 4.08425 9.73624 4.14184 9.80587 4.21414C9.87549 4.28644 9.92989 4.37198 9.96585 4.4657C10.0018 4.55941 10.0186 4.65938 10.0152 4.7597C10.0118 4.86002 9.98832 4.95863 9.94612 5.0497C9.90391 5.14077 9.84386 5.22245 9.76952 5.28988L5.61152 9.24988L16.2495 9.24988C16.4484 9.24988 16.6392 9.3289 16.7798 9.46955C16.9205 9.61021 16.9995 9.80097 16.9995 9.99988Z" fill="black"/>
</svg>
