<svg width="50" height="50" viewBox="0 0 50 50" fill="none" xmlns="http://www.w3.org/2000/svg">
    <path d="M32.4219 42.648L42.0797 31.5043C42.4013 31.1335 42.5782 30.6591 42.5781 30.1683C42.5786 29.77 42.4625 29.3802 42.244 29.0471C42.0255 28.714 41.7143 28.4522 41.3487 28.2939C40.9832 28.1356 40.5793 28.0879 40.1869 28.1565C39.7945 28.2251 39.4308 28.4071 39.1406 28.68L30.0781 37.1793" fill="#FFDED8"/>
    <path d="M35.9375 43.4293L45.5953 32.2855C45.9169 31.9147 46.0939 31.4404 46.0937 30.9496C46.0942 30.5512 45.9781 30.1615 45.7596 29.8284C45.5411 29.4953 45.2299 29.2334 44.8644 29.0751C44.4988 28.9169 44.0949 28.8691 43.7025 28.9377C43.3101 29.0063 42.9464 29.1884 42.6562 29.4613L33.5938 37.9605" fill="#FCCAC3"/>
    <path d="M35.4828 39.0621H23.4375V44.5308H35.4953C36.6151 44.5308 37.7219 44.2901 38.7405 43.8249C39.7591 43.3597 40.6658 42.681 41.3992 41.8347L48.7203 33.3871C49.0419 33.0163 49.2189 32.5419 49.2187 32.0511C49.2192 31.6528 49.1031 31.263 48.8846 30.9299C48.6661 30.5968 48.3549 30.335 47.9894 30.1767C47.6238 30.0184 47.2199 29.9707 46.8275 30.0393C46.4351 30.1079 46.0714 30.2899 45.7812 30.5629L37.6172 38.2191C37.0384 38.7606 36.2754 39.0619 35.4828 39.0621Z" fill="#FFEBE8"/>
    <path d="M26.5625 39.6486C26.5625 39.804 26.6242 39.9531 26.7341 40.063C26.844 40.1728 26.993 40.2346 27.1484 40.2346H35.1563C35.793 40.2337 36.4095 40.011 36.8998 39.6048C37.3902 39.1986 37.7237 38.6342 37.843 38.0088L37.6203 38.2174C37.0411 38.7605 36.2768 39.0627 35.4828 39.0627H27.1484C26.993 39.0627 26.844 39.1244 26.7341 39.2343C26.6242 39.3442 26.5625 39.4932 26.5625 39.6486Z" fill="#FFDED8"/>
    <path d="M26.5625 39.0623H35.1562C35.5707 39.0623 35.9681 38.8977 36.2611 38.6047C36.5541 38.3116 36.7188 37.9142 36.7188 37.4998C36.7188 36.671 36.3895 35.8762 35.8035 35.2901C35.2174 34.7041 34.4226 34.3748 33.5938 34.3748H26.5625C25.4352 33.5153 24.0301 33.1024 22.617 33.2156C21.2039 33.3288 19.8824 33.96 18.9063 34.9881L18.75 35.1561H14.8438V44.5311H26.5625" fill="#FFEBE8"/>
    <path d="M11.7188 33.5938H14.8438V46.0938H11.7188V33.5938Z" fill="#F9F9FF"/>
    <path d="M11.7188 35.9375H14.8438V46.0938H11.7188V35.9375Z" fill="#F1F0FF"/>
    <path d="M0.78125 32.8125H11.7188V46.875H0.78125V32.8125Z" fill="#F695A9"/>
    <path d="M3.125 35.1562H11.7188V46.875H3.125V35.1562Z" fill="#F47A94"/>
    <path d="M16.714 24.5184H15.4687C15.1944 24.5184 14.925 24.4462 14.6875 24.309C14.45 24.1719 14.2527 23.9747 14.1156 23.7371L13.1 21.9832C12.9628 21.7457 12.8906 21.4763 12.8906 21.202C12.8906 20.9277 12.9628 20.6583 13.1 20.4207L16.1281 15.1746L15.5078 14.8168C15.4117 14.7614 15.3334 14.6798 15.2819 14.5815C15.2304 14.4833 15.2079 14.3725 15.2169 14.2619C15.2259 14.1514 15.266 14.0456 15.3328 13.957C15.3995 13.8684 15.49 13.8006 15.5937 13.7614L18.9601 12.4879C19.0413 12.4573 19.1283 12.4451 19.2148 12.4521C19.3013 12.4592 19.3851 12.4854 19.4602 12.5289C19.5354 12.5723 19.5999 12.6319 19.6492 12.7033C19.6985 12.7747 19.7313 12.8562 19.7453 12.9418L20.3265 16.4942C20.3443 16.6036 20.3307 16.7158 20.2872 16.8178C20.2438 16.9198 20.1723 17.0073 20.0811 17.0703C19.9899 17.1333 19.8827 17.1691 19.772 17.1736C19.6612 17.1781 19.5514 17.1511 19.4554 17.0957L18.8351 16.7379L15.5289 22.4645C15.4085 22.6726 15.3451 22.9087 15.345 23.149C15.3449 23.3894 15.4081 23.6255 15.5282 23.8337C15.6484 24.0419 15.8212 24.2148 16.0294 24.335C16.2375 24.4552 16.4737 24.5184 16.714 24.5184Z" fill="#9FE387"/>
    <path d="M22.9288 21.3926H16.1475L15.5311 22.4613C15.4108 22.6698 15.3476 22.9063 15.3477 23.147C15.3477 23.3877 15.4112 23.6241 15.5316 23.8325C15.6521 24.0409 15.8252 24.2139 16.0337 24.3342C16.2422 24.4544 16.4787 24.5177 16.7194 24.5176H22.9303L22.9288 21.3926Z" fill="#87D873"/>
    <path d="M36.2754 19.3379L36.9004 20.4191C37.0376 20.6567 37.1098 20.9261 37.1098 21.2004C37.1098 21.4747 37.0376 21.7441 36.9004 21.9816L35.8848 23.7355C35.7477 23.9731 35.5504 24.1703 35.3129 24.3075C35.0754 24.4446 34.8059 24.5168 34.5317 24.5168H28.477V25.234C28.4769 25.3449 28.4454 25.4535 28.3861 25.5472C28.3267 25.6409 28.242 25.7158 28.1418 25.7632C28.0415 25.8107 27.9299 25.8287 27.8198 25.8153C27.7098 25.8018 27.6058 25.7573 27.5199 25.6871L24.734 23.4082C24.667 23.3532 24.6129 23.2839 24.5759 23.2055C24.5388 23.1271 24.5195 23.0414 24.5195 22.9547C24.5195 22.8679 24.5388 22.7823 24.5759 22.7039C24.6129 22.6254 24.667 22.5562 24.734 22.5012L27.5199 20.2223C27.6058 20.152 27.7098 20.1076 27.8198 20.0941C27.9299 20.0806 28.0415 20.0987 28.1418 20.1461C28.242 20.1936 28.3267 20.2685 28.3861 20.3622C28.4454 20.4559 28.4769 20.5645 28.477 20.6754V21.3918H35.0895C35.3298 21.3917 35.5659 21.3284 35.774 21.2082C35.9822 21.0881 36.155 20.9152 36.2752 20.7071C36.3953 20.4989 36.4586 20.2629 36.4587 20.0225C36.4587 19.7822 36.3955 19.5461 36.2754 19.3379Z" fill="#9FE387"/>
    <path d="M30.4629 15.5205L33.8535 21.3924H35.0871C35.3277 21.3924 35.5641 21.329 35.7725 21.2087C35.9809 21.0884 36.154 20.9153 36.2743 20.707C36.3946 20.4986 36.458 20.2622 36.4581 20.0216C36.4581 19.781 36.3949 19.5446 36.2746 19.3361L33.1691 13.958L30.4629 15.5205Z" fill="#87D873"/>
    <path d="M22.0098 4.9875L22.634 3.90625C22.7709 3.66918 22.9676 3.47224 23.2045 3.33513C23.4415 3.19802 23.7102 3.12555 23.984 3.125H26.0152C26.2895 3.12501 26.5589 3.19721 26.7965 3.33435C27.034 3.47148 27.2312 3.66873 27.3684 3.90625L30.3973 9.15156L31.0176 8.79375C31.1136 8.73837 31.2234 8.71136 31.3341 8.71586C31.4449 8.72036 31.5521 8.75619 31.6433 8.81917C31.7345 8.88216 31.806 8.96973 31.8494 9.07171C31.8928 9.17369 31.9065 9.2859 31.8887 9.39531L31.3074 12.9477C31.2935 13.0333 31.2607 13.1148 31.2114 13.1862C31.1621 13.2576 31.0975 13.3171 31.0224 13.3605C30.9472 13.4039 30.8633 13.43 30.7768 13.437C30.6904 13.4439 30.6034 13.4316 30.5223 13.4008L27.1559 12.1281C27.0521 12.0889 26.9616 12.0211 26.8949 11.9325C26.8282 11.8438 26.788 11.7381 26.779 11.6276C26.77 11.517 26.7926 11.4062 26.8441 11.308C26.8956 11.2097 26.9739 11.1281 27.0699 11.0727L27.6902 10.7141L24.384 4.9875C24.2639 4.77934 24.0911 4.60648 23.883 4.48629C23.6749 4.3661 23.4388 4.30282 23.1984 4.30282C22.9581 4.30282 22.722 4.3661 22.5139 4.48629C22.3058 4.60648 22.133 4.77934 22.0129 4.9875H22.0098Z" fill="#9FE387"/>
    <path d="M21.6094 11.9311L25 6.05848L24.3828 4.99051C24.2626 4.78202 24.0896 4.60886 23.8812 4.48847C23.6728 4.36807 23.4364 4.30469 23.1957 4.30469C22.955 4.30469 22.7186 4.36807 22.5102 4.48847C22.3018 4.60886 22.1288 4.78202 22.0086 4.99051L18.9062 10.3686L21.6094 11.9311Z" fill="#87D873"/>
    <path d="M46.2961 29.5719C45.9457 29.0036 45.3916 28.5906 44.7469 28.4172C44.4074 28.3224 44.0522 28.2979 43.703 28.345C43.3537 28.3922 43.0178 28.51 42.7156 28.6914C42.3629 28.1792 41.8423 27.8064 41.2438 27.6375C40.8094 27.5149 40.3507 27.5071 39.9124 27.615C39.4742 27.723 39.0715 27.9428 38.7437 28.2531L32.8375 33.7891H26.7555C25.5157 32.9034 23.998 32.4949 22.4811 32.6384C20.9643 32.7819 19.5501 33.4679 18.4984 34.5703H15.4297V33.5938C15.4297 33.4383 15.368 33.2893 15.2581 33.1794C15.1482 33.0695 14.9992 33.0078 14.8438 33.0078H12.3047V32.8125C12.3047 32.6571 12.243 32.5081 12.1331 32.3982C12.0232 32.2883 11.8742 32.2266 11.7188 32.2266H0.78125C0.62585 32.2266 0.476814 32.2883 0.36693 32.3982C0.257045 32.5081 0.195313 32.6571 0.195312 32.8125V46.875C0.195313 47.0304 0.257045 47.1794 0.36693 47.2893C0.476814 47.3992 0.62585 47.4609 0.78125 47.4609H11.7188C11.8742 47.4609 12.0232 47.3992 12.1331 47.2893C12.243 47.1794 12.3047 47.0304 12.3047 46.875V46.6797H14.8438C14.9992 46.6797 15.1482 46.618 15.2581 46.5081C15.368 46.3982 15.4297 46.2491 15.4297 46.0938V45.1172H35.4953C36.6991 45.1171 37.8889 44.8583 38.984 44.3582C40.079 43.8581 41.0538 43.1285 41.8422 42.2188L49.1633 33.7711C49.5767 33.2939 49.8043 32.6837 49.8047 32.0523C49.8045 31.6315 49.7033 31.2167 49.5097 30.843C49.3161 30.4693 49.0357 30.1474 48.6921 29.9045C48.3484 29.6615 47.9514 29.5045 47.5345 29.4466C47.1177 29.3887 46.693 29.4317 46.2961 29.5719ZM11.1328 46.2891H1.36719V33.3984H11.1328V46.2891ZM14.2578 45.5078H12.3047V34.1797H14.2578V45.5078ZM43.0602 29.8898C43.2386 29.7168 43.4595 29.5938 43.7007 29.5335C43.9419 29.4731 44.1947 29.4775 44.4336 29.5461C44.8013 29.643 45.1166 29.8796 45.3125 30.2055L37.2969 37.7203C37.3039 37.6477 37.3078 37.5742 37.3078 37.5C37.3086 36.8757 37.1508 36.2614 36.8492 35.7148L43.0602 29.8898ZM39.5445 29.1086C39.724 28.9353 39.946 28.8125 40.1881 28.7525C40.4302 28.6926 40.6839 28.6976 40.9234 28.7672C41.1093 28.8176 41.2834 28.9043 41.4355 29.0223C41.5877 29.1403 41.7151 29.2872 41.8102 29.4547L36.1227 34.7875C35.6516 34.3472 35.0736 34.0375 34.4461 33.8891L39.5445 29.1086ZM48.2812 33.0039L40.9562 41.4516C40.2778 42.2342 39.4391 42.8619 38.4969 43.2922C37.5547 43.7225 36.5311 43.9452 35.4953 43.9453H15.4297V35.7422H18.75C18.8295 35.7423 18.9081 35.7262 18.9812 35.6949C19.0543 35.6636 19.1202 35.6177 19.175 35.5602L19.3312 35.3922C20.2074 34.4682 21.3945 33.9011 22.6639 33.8002C23.9332 33.6992 25.195 34.0715 26.2062 34.8453C26.3093 34.9215 26.4344 34.9621 26.5625 34.9609H33.5938C34.2669 34.9618 34.9122 35.2295 35.3882 35.7055C35.8642 36.1815 36.132 36.8269 36.1328 37.5C36.1324 37.7589 36.0294 38.007 35.8463 38.1901C35.6633 38.3731 35.4151 38.4762 35.1562 38.4766H26.5625C26.4071 38.4766 26.2581 38.5383 26.1482 38.6482C26.0383 38.7581 25.9766 38.9071 25.9766 39.0625C25.9766 39.2179 26.0383 39.3669 26.1482 39.4768C26.2581 39.5867 26.4071 39.6484 26.5625 39.6484H35.4828C36.4258 39.6487 37.3334 39.2897 38.0211 38.6445L46.1852 30.9883C46.3175 30.8507 46.4757 30.7404 46.6506 30.6639C46.8256 30.5874 47.0139 30.5461 47.2048 30.5424C47.3957 30.5386 47.5854 30.5725 47.7632 30.6422C47.941 30.7118 48.1034 30.8157 48.241 30.948C48.3786 31.0804 48.4889 31.2386 48.5654 31.4135C48.6419 31.5884 48.6832 31.7767 48.6869 31.9676C48.6907 32.1585 48.6567 32.3483 48.5871 32.5261C48.5175 32.7039 48.4136 32.8663 48.2812 33.0039ZM18.6102 10.8758L21.3164 12.4383C21.383 12.4768 21.4566 12.5019 21.5329 12.512C21.6092 12.5221 21.6868 12.517 21.7612 12.4972C21.8355 12.4773 21.9052 12.443 21.9663 12.3961C22.0274 12.3493 22.0787 12.2909 22.1172 12.2242L25 7.23047L26.8875 10.5L26.7742 10.5648C26.5826 10.676 26.4264 10.8391 26.3237 11.0354C26.221 11.2317 26.176 11.453 26.194 11.6738C26.212 11.8946 26.2922 12.1058 26.4253 12.2828C26.5584 12.4599 26.739 12.5956 26.9461 12.6742L30.3125 13.9484C30.4748 14.0098 30.6487 14.0344 30.8217 14.0204C30.9947 14.0064 31.1624 13.9542 31.3127 13.8675C31.4631 13.7808 31.5922 13.6618 31.691 13.519C31.7897 13.3763 31.8555 13.2134 31.8836 13.0422L32.4641 9.48984C32.4998 9.27096 32.4727 9.04643 32.3859 8.84234C32.2991 8.63826 32.1562 8.46299 31.9737 8.33691C31.7913 8.21082 31.5768 8.13911 31.3552 8.13008C31.1336 8.12106 30.914 8.17511 30.7219 8.28594L30.6094 8.35156L27.875 3.61328C27.686 3.28733 27.4149 3.01663 27.0886 2.82814C26.7624 2.63966 26.3924 2.53999 26.0156 2.53906H23.9844C23.6073 2.53963 23.237 2.63914 22.9104 2.82765C22.5839 3.01615 22.3125 3.28705 22.1234 3.61328L18.3953 10.0781C18.3183 10.2125 18.2977 10.3718 18.3379 10.5213C18.3782 10.6708 18.4761 10.7983 18.6102 10.8758ZM23.9844 3.71094H26.0156C26.187 3.71135 26.3553 3.75664 26.5038 3.84231C26.6522 3.92797 26.7756 4.05103 26.8617 4.19922L29.8898 9.44453C29.9676 9.57912 30.0956 9.67734 30.2458 9.71762C30.3959 9.7579 30.5559 9.73695 30.6906 9.65938L31.3109 9.30078L30.7305 12.8523L27.3633 11.5797L27.9836 11.2219C28.0503 11.1834 28.1088 11.1322 28.1557 11.0712C28.2026 11.0101 28.237 10.9404 28.257 10.866C28.2769 10.7916 28.282 10.7141 28.272 10.6377C28.2619 10.5614 28.237 10.4878 28.1984 10.4211L24.8922 4.69453C24.7608 4.46384 24.5833 4.26267 24.3708 4.10353C24.1583 3.9444 23.9154 3.8307 23.657 3.76953C23.762 3.73143 23.8727 3.71161 23.9844 3.71094ZM22.5156 5.28359C22.5839 5.16392 22.6827 5.06444 22.8018 4.99524C22.921 4.92605 23.0563 4.8896 23.1941 4.8896C23.3319 4.8896 23.4673 4.92605 23.5864 4.99524C23.7056 5.06444 23.8044 5.16392 23.8727 5.28359L24.3219 6.06484L21.3938 11.1375L19.7031 10.1562L22.5156 5.28359ZM13.6055 24.0297C13.7947 24.3563 14.0664 24.6275 14.3934 24.816C14.7205 25.0045 15.0913 25.1038 15.4687 25.1039H22.9305C23.0859 25.1039 23.2349 25.0422 23.3448 24.9323C23.4547 24.8224 23.5164 24.6734 23.5164 24.518V21.393C23.5164 21.2376 23.4547 21.0885 23.3448 20.9786C23.2349 20.8688 23.0859 20.807 22.9305 20.807H17.1648L19.0523 17.5375L19.1656 17.6023C19.3577 17.7132 19.5773 17.7672 19.7989 17.7582C20.0205 17.7492 20.235 17.6775 20.4175 17.5514C20.5999 17.4253 20.7429 17.25 20.8297 17.0459C20.9165 16.8418 20.9436 16.6173 20.9078 16.3984L20.3266 12.8469C20.2987 12.6749 20.2329 12.5113 20.1339 12.3679C20.0349 12.2246 19.9051 12.1051 19.7541 12.0182C19.6031 11.9313 19.4346 11.8792 19.2609 11.8657C19.0872 11.8521 18.9127 11.8774 18.75 11.9398L15.3828 13.2133C15.1758 13.292 14.9953 13.4278 14.8622 13.6049C14.7292 13.782 14.6491 13.9932 14.6312 14.2139C14.6133 14.4347 14.6583 14.6561 14.761 14.8523C14.8638 15.0485 15.0201 15.2116 15.2117 15.3227L15.3242 15.3883L12.5898 20.1266C12.4021 20.4534 12.3033 20.8238 12.3033 21.2008C12.3033 21.5777 12.4021 21.9481 12.5898 22.275L13.6055 24.0297ZM22.3438 21.9789V23.932H16.7188C16.5812 23.9332 16.4458 23.8976 16.3266 23.8289C16.2074 23.7603 16.1086 23.661 16.0406 23.5414C15.9703 23.4232 15.9332 23.2883 15.9332 23.1508C15.9332 23.0133 15.9703 22.8783 16.0406 22.7602L16.4898 21.9789H22.3438ZM13.6094 20.7133L16.6352 15.4687C16.7128 15.3343 16.7338 15.1745 16.6937 15.0245C16.6535 14.8745 16.5555 14.7465 16.4211 14.6687L15.8 14.3109L19.1672 13.0375L19.7484 16.5891L19.1273 16.2312C18.9928 16.1536 18.833 16.1326 18.683 16.1727C18.533 16.2129 18.4051 16.3109 18.3273 16.4453L15.0211 22.1727C14.887 22.4016 14.8015 22.6557 14.7699 22.9192C14.7383 23.1826 14.7613 23.4497 14.8375 23.7039C14.7505 23.6312 14.6769 23.5436 14.6203 23.4453L13.6047 21.6914C13.5193 21.5425 13.4746 21.3737 13.4751 21.202C13.4755 21.0304 13.521 20.8618 13.607 20.7133H13.6094ZM29.9555 15.8125L32.8383 20.8062H29.0625V20.6758C29.0625 20.4539 28.9996 20.2366 28.881 20.0491C28.7623 19.8616 28.5929 19.7117 28.3925 19.6167C28.192 19.5216 27.9686 19.4855 27.7484 19.5124C27.5282 19.5394 27.3201 19.6282 27.1484 19.7688L24.3633 22.0484C24.2291 22.1584 24.1209 22.2967 24.0467 22.4535C23.9724 22.6103 23.9339 22.7816 23.9339 22.9551C23.9339 23.1286 23.9724 23.2999 24.0467 23.4567C24.1209 23.6135 24.2291 23.7518 24.3633 23.8617L27.1492 26.1414C27.3209 26.2817 27.5289 26.3704 27.749 26.3972C27.9691 26.424 28.1923 26.3878 28.3926 26.2928C28.593 26.1978 28.7623 26.0479 28.8808 25.8606C28.9994 25.6732 29.0624 25.4561 29.0625 25.2344V25.1039H34.5312C34.9082 25.1033 35.2784 25.0037 35.6048 24.8152C35.9312 24.6267 36.2025 24.3559 36.3914 24.0297L37.407 22.2758C37.5951 21.949 37.6941 21.5786 37.6941 21.2016C37.6941 20.8245 37.5951 20.4541 37.407 20.1273L33.6766 13.6641C33.5986 13.5296 33.4706 13.4316 33.3204 13.3914C33.1703 13.3513 33.0104 13.3724 32.8758 13.45L30.1695 15.0125C30.1028 15.0509 30.0444 15.102 29.9975 15.163C29.9506 15.224 29.9162 15.2937 29.8963 15.368C29.8764 15.4424 29.8714 15.5199 29.8816 15.5962C29.8917 15.6724 29.9168 15.746 29.9555 15.8125ZM36.5078 21.3711C36.4886 21.483 36.4498 21.5907 36.393 21.6891L35.3773 23.443C35.2914 23.5913 35.168 23.7144 35.0195 23.8001C34.871 23.8858 34.7027 23.931 34.5312 23.9312H28.4773C28.3219 23.9312 28.1729 23.993 28.063 24.1029C27.9531 24.2128 27.8914 24.3618 27.8914 24.5172V25.2344L25.1055 22.9555L27.8906 20.6758V21.3922C27.8906 21.5476 27.9524 21.6966 28.0622 21.8065C28.1721 21.9164 28.3212 21.9781 28.4766 21.9781H35.0891C35.3546 21.98 35.6177 21.9271 35.8618 21.8227C36.1059 21.7182 36.3258 21.5645 36.5078 21.3711ZM32.9547 14.7578L35.7672 19.6281C35.8364 19.7467 35.8728 19.8815 35.8728 20.0188C35.8728 20.156 35.8364 20.2908 35.7672 20.4094C35.6999 20.5296 35.6014 20.6294 35.482 20.6982C35.3626 20.767 35.2268 20.8022 35.0891 20.8H34.1906L31.2625 15.7344L32.9547 14.7578Z" fill="black"/>
</svg>
