<svg width="8" height="10" viewBox="0 0 8 10" fill="none" xmlns="http://www.w3.org/2000/svg">
    <path d="M7.14271 3.92849C7.14271 3.07603 6.80407 2.25848 6.20129 1.65569C5.5985 1.05291 4.78095 0.714271 3.92849 0.714271C3.07603 0.714271 2.25848 1.05291 1.65569 1.65569C1.05291 2.25848 0.714271 3.07603 0.714271 3.92849C0.714271 5.24703 1.76925 6.96557 3.92849 9.0241C6.08773 6.96557 7.14271 5.24703 7.14271 3.92849ZM3.92849 9.99979C1.30926 7.61913 0 5.59488 0 3.92849C0 2.88659 0.413893 1.88736 1.15063 1.15063C1.88736 0.413893 2.88659 0 3.92849 0C4.97039 0 5.96962 0.413893 6.70635 1.15063C7.44309 1.88736 7.85698 2.88659 7.85698 3.92849C7.85698 5.59488 6.54772 7.61913 3.92849 9.99979Z" fill="#B9B9B9"/>
    <path d="M3.92883 5.00024C4.21298 5.00024 4.4855 4.88736 4.68643 4.68643C4.88736 4.4855 5.00024 4.21298 5.00024 3.92883C5.00024 3.64468 4.88736 3.37216 4.68643 3.17123C4.4855 2.9703 4.21298 2.85742 3.92883 2.85742C3.64468 2.85742 3.37216 2.9703 3.17123 3.17123C2.9703 3.37216 2.85742 3.64468 2.85742 3.92883C2.85742 4.21298 2.9703 4.4855 3.17123 4.68643C3.37216 4.88736 3.64468 5.00024 3.92883 5.00024ZM3.92883 5.71451C3.45524 5.71451 3.00104 5.52637 2.66617 5.19149C2.33129 4.85661 2.14315 4.40242 2.14315 3.92883C2.14315 3.45524 2.33129 3.00104 2.66617 2.66617C3.00104 2.33129 3.45524 2.14315 3.92883 2.14315C4.40242 2.14315 4.85661 2.33129 5.19149 2.66617C5.52637 3.00104 5.71451 3.45524 5.71451 3.92883C5.71451 4.40242 5.52637 4.85661 5.19149 5.19149C4.85661 5.52637 4.40242 5.71451 3.92883 5.71451Z" fill="#B9B9B9"/>
</svg>
