<svg width="15" height="15" viewBox="0 0 15 15" fill="none" xmlns="http://www.w3.org/2000/svg">
    <g clip-path="url(#clip0_572_2182)">
        <path d="M0.278438 11.4405C0.463859 11.6261 0.683654 11.7188 0.93762 11.7188H14.0624C14.3165 11.7188 14.5361 11.6261 14.7217 11.4405C14.9073 11.2547 15 11.0351 15 10.7812C15 10.5273 14.9073 10.3077 14.7217 10.1221L8.15929 3.55962C7.97351 3.37405 7.75386 3.28113 7.5 3.28113C7.24614 3.28113 7.02629 3.37405 6.84087 3.55962L0.278438 10.1221C0.0930681 10.3077 -1.90735e-06 10.5273 -1.90735e-06 10.7812C-1.90735e-06 11.0351 0.0930681 11.2547 0.278438 11.4405Z" fill="#1544AB"/>
    </g>
    <defs>
        <clipPath id="clip0_572_2182">
            <rect width="15" height="15" fill="white" transform="matrix(-1 0 0 -1 15 15)"/>
        </clipPath>
    </defs>
</svg>
