<svg width="25" height="25" viewBox="0 0 25 25" fill="none" xmlns="http://www.w3.org/2000/svg">
    <path d="M18.3578 19C16.8069 20.3986 14.7529 21.25 12.5 21.25C10.1091 21.25 7.9422 20.2911 6.36287 18.7368" stroke="#252B5C" stroke-width="1.6" stroke-linecap="round"/>
    <path d="M17.971 18.5515C17.8079 18.3489 17.6333 18.1543 17.4477 17.9687C16.0802 16.6012 14.2255 15.833 12.2917 15.833C10.3578 15.833 8.50313 16.6012 7.13568 17.9687C6.8902 18.2142 6.66403 18.4754 6.45815 18.7499" stroke="#252B5C" stroke-width="1.6" stroke-linecap="round" stroke-linejoin="round"/>
    <path d="M12.5 15C13.4946 15 14.4484 14.6049 15.1517 13.9017C15.8549 13.1984 16.25 12.2446 16.25 11.25C16.25 10.2554 15.8549 9.30161 15.1517 8.59835C14.4484 7.89509 13.4946 7.5 12.5 7.5C11.5054 7.5 10.5516 7.89509 9.84835 8.59835C9.14509 9.30161 8.75 10.2554 8.75 11.25C8.75 12.2446 9.14509 13.1984 9.84835 13.9017C10.5516 14.6049 11.5054 15 12.5 15V15Z" stroke="#252B5C" stroke-width="1.6" stroke-linecap="round" stroke-linejoin="round"/>
</svg>
