<svg width="50" height="50" viewBox="0 0 50 50" fill="none" xmlns="http://www.w3.org/2000/svg">
    <path d="M11.1921 48.0567C10.6443 48.0567 10.1004 47.8854 9.63612 47.5491C9.2139 47.2429 8.89083 46.819 8.7071 46.3303C8.52337 45.8415 8.48709 45.3095 8.60277 44.8002L11.8192 30.6035L0.911142 21.0185C0.518831 20.6755 0.235829 20.2245 0.0973445 19.7216C-0.04114 19.2187 -0.0289937 18.6861 0.132272 18.19C0.292548 17.6942 0.594519 17.2565 1.00075 16.9311C1.40697 16.6056 1.89959 16.4068 2.41752 16.3593L16.8501 15.0463L22.5564 1.66596C22.977 0.682884 23.9352 0.0480499 24.9999 0.0480499C26.0646 0.0480499 27.0227 0.682884 27.4435 1.66371L33.1496 15.0463L47.5799 16.3591C48.6426 16.455 49.5383 17.1755 49.8674 18.1899C50.1967 19.2044 49.8922 20.317 49.0904 21.0184L38.1824 30.6017L41.3989 44.798C41.6346 45.8418 41.2302 46.9212 40.3659 47.5473C39.5035 48.1733 38.3533 48.2214 37.4452 47.6745L24.9999 40.2224L12.5546 47.6787C12.1339 47.9291 11.665 48.0567 11.1921 48.0567ZM24.9999 37.0122C25.4729 37.0122 25.9412 37.1394 26.3624 37.3898L38.1077 44.4288L35.0721 31.0294C34.9658 30.561 34.988 30.0726 35.1362 29.6159C35.2843 29.1591 35.5531 28.751 35.9139 28.4348L46.2135 19.384L32.5869 18.1441C32.1074 18.1011 31.6485 17.9282 31.2596 17.6439C30.8706 17.3597 30.5661 16.9747 30.3787 16.5303L24.9999 3.90353L19.6146 16.5322C19.2354 17.4319 18.3916 18.05 17.4128 18.1398L3.78425 19.3798L14.0836 28.4306C14.8212 29.0778 15.1439 30.0715 14.9253 31.0275L11.8921 44.4264L23.6373 37.3898C24.0581 37.1394 24.5269 37.0122 24.9999 37.0122ZM16.7399 15.305C16.7399 15.305 16.7399 15.3072 16.7376 15.3092L16.7399 15.305ZM33.2557 15.2988L33.258 15.303C33.258 15.3008 33.258 15.3008 33.2556 15.2988H33.2557Z" fill="#1544AB"/>
</svg>
