<svg width="20" height="20" viewBox="0 0 20 20" fill="none" xmlns="http://www.w3.org/2000/svg">
    <path fill-rule="evenodd" clip-rule="evenodd" d="M16.9995 10C16.9995 10.1989 16.9205 10.3897 16.7798 10.5303C16.6392 10.671 16.4484 10.75 16.2495 10.75L5.61152 10.75L9.76952 14.71C9.90592 14.8494 9.98264 15.0365 9.98341 15.2315C9.98418 15.4266 9.90894 15.6142 9.77365 15.7547C9.63836 15.8952 9.45367 15.9775 9.25874 15.9841C9.06381 15.9906 8.87398 15.921 8.72952 15.79L3.22952 10.54C3.15693 10.47 3.0992 10.3862 3.05976 10.2934C3.02032 10.2006 3 10.1008 3 10C3 9.89918 3.02032 9.7994 3.05976 9.70662C3.0992 9.61384 3.15693 9.52996 3.22952 9.46L8.72952 4.21C8.79971 4.13825 8.88359 4.08132 8.97619 4.04259C9.06879 4.00385 9.16822 3.9841 9.26859 3.98449C9.36897 3.98489 9.46824 4.00543 9.56053 4.0449C9.65281 4.08437 9.73624 4.14196 9.80587 4.21426C9.87549 4.28656 9.92989 4.3721 9.96585 4.46581C10.0018 4.55952 10.0186 4.6595 10.0152 4.75981C10.0118 4.86013 9.98832 4.95875 9.94612 5.04982C9.90391 5.14089 9.84386 5.22256 9.76952 5.29L5.61152 9.25L16.2495 9.25C16.4484 9.25 16.6392 9.32902 16.7798 9.46967C16.9205 9.61032 16.9995 9.80109 16.9995 10Z" fill="white"/>
</svg>
