<svg width="50" height="50" viewBox="0 0 50 50" fill="none" xmlns="http://www.w3.org/2000/svg">
    <path d="M1.14463 32.5003C0.400879 30.1326 0 27.6132 0 25C0 11.1929 11.1929 0 25 0C38.8071 0 50 11.1929 50 25C50 38.8071 38.8071 50 25 50C17.4367 50 10.6578 46.6414 6.07353 41.3343L1.14463 32.5003Z" fill="#FE8205"/>
    <path d="M6.07422 41.3342L8.6665 43.9265C13.0478 47.711 18.7569 50 25.0008 50C38.8079 50 50.0008 38.8071 50.0008 25C50.0008 24.857 49.9995 24.7144 49.9972 24.572L33.3121 7.88691L9.91357 24.5778L13.1328 27.7971L11.9947 28.5216L15.7046 32.2314L6.07422 41.3342Z" fill="#F24500"/>
    <path d="M11.9941 21.2189H16.6006V28.5217H11.9941V21.2189Z" fill="#636978"/>
    <path d="M33.4004 21.2189H38.0068V28.5217H33.4004V21.2189Z" fill="#414952"/>
    <path d="M37.7545 16.7296H12.2461L16.689 7.88691H33.3116L37.7545 16.7296Z" fill="#7584F2"/>
    <path d="M33.3114 7.88691H25.0352V16.7296H37.7543L33.3114 7.88691Z" fill="#606AEA"/>
    <path d="M34.6449 16.7296H15.3555L18.7151 9.97411H31.2852L34.6449 16.7296Z" fill="white"/>
    <path d="M31.285 9.97411H25.0352V16.7296H34.6447L31.285 9.97411Z" fill="#E9EDF5"/>
    <path d="M40.0865 24.5778H9.91211V19.4322C9.91211 17.2295 11.6978 15.4438 13.9005 15.4438H36.0981C38.3009 15.4438 40.0865 17.2295 40.0865 19.4322V24.5778Z" fill="#7584F2"/>
    <path d="M40.0873 19.4322C40.0873 17.2295 38.3016 15.4438 36.0989 15.4438H25.0352V24.5779H40.0873V19.4322Z" fill="#606AEA"/>
    <path d="M11.9941 18.9061H18.1701V21.2188H11.9941V18.9061Z" fill="white"/>
    <path d="M31.8301 18.9061H38.006V21.2188H31.8301V18.9061Z" fill="#E9EDF5"/>
    <path d="M36.7854 31.9151L27.737 37.5708L21.3554 34.0332L28.4361 32.1317C29.3599 31.6713 29.8283 30.6208 29.5536 29.6256C29.2658 28.5826 28.2505 27.9141 27.179 28.062L18.1133 28.321C16.8976 28.3558 15.69 28.5299 14.5141 28.8399L1.14453 32.5003C2.17783 35.7899 3.87266 38.7865 6.07334 41.3341C9.26797 39.5873 12.1262 37.9974 12.1262 37.9974L23.8819 42.436C24.9038 42.8182 26.0031 42.9471 27.0856 42.8118C28.1682 42.6764 29.2019 42.2807 30.0981 41.6587L41.0784 33.825L40.4092 32.7151C39.6396 31.479 38.0038 31.1179 36.7854 31.9151Z" fill="#FFDECF"/>
    <path d="M28.4364 32.1317C29.3602 31.6713 29.8286 30.6208 29.5539 29.6256C29.2661 28.5826 28.2508 27.914 27.1793 28.0619L25.0352 28.1231V33.0449L28.4364 32.1317ZM40.4094 32.7152C39.6399 31.479 38.0042 31.1179 36.7857 31.9151L27.7373 37.5708L25.0352 36.0729V42.7539C25.9097 42.9135 26.8071 42.899 27.676 42.7111C28.5448 42.5231 29.368 42.1655 30.0983 41.6588L41.0786 33.8251L40.4094 32.7152Z" fill="#FFCDBE"/>
</svg>
