<svg width="50" height="50" viewBox="0 0 50 50" fill="none" xmlns="http://www.w3.org/2000/svg">
    <path d="M4.6875 25.7812H26.5625V42.9688H4.6875V25.7812Z" fill="#AAE1F9"/>
    <path d="M2.34375 42.9688H28.9062V44.5312C28.9062 45.3601 28.577 46.1549 27.991 46.741C27.4049 47.327 26.6101 47.6562 25.7812 47.6562H5.46875C4.63995 47.6562 3.84509 47.327 3.25904 46.741C2.67299 46.1549 2.34375 45.3601 2.34375 44.5312V42.9688Z" fill="#F9E109"/>
    <path d="M7.8125 32.0312V25.7812H4.6875V42.9688H26.5625V39.8438H15.625C13.553 39.8438 11.5659 39.0206 10.1007 37.5555C8.6356 36.0904 7.8125 34.1033 7.8125 32.0312Z" fill="#57B7EB"/>
    <path d="M7.03125 45.3125C6.40965 45.3125 5.81351 45.0656 5.37397 44.626C4.93443 44.1865 4.6875 43.5904 4.6875 42.9688H2.34375V44.5312C2.34375 45.3601 2.67299 46.1549 3.25904 46.741C3.84509 47.327 4.63995 47.6562 5.46875 47.6562H25.7813C26.4723 47.654 27.1431 47.4228 27.6888 46.9987C28.2344 46.5746 28.6241 45.9816 28.7969 45.3125H7.03125Z" fill="#FCBC04"/>
    <path d="M46.0938 26.5625H36.7188C35.8558 26.5625 35.1562 27.2621 35.1562 28.125V37.5C35.1562 38.3629 35.8558 39.0625 36.7188 39.0625H46.0938C46.9567 39.0625 47.6562 38.3629 47.6562 37.5V28.125C47.6562 27.2621 46.9567 26.5625 46.0938 26.5625Z" fill="#C4F236"/>
    <path d="M41.4062 35.1562C42.7007 35.1562 43.75 34.1069 43.75 32.8125C43.75 31.5181 42.7007 30.4688 41.4062 30.4688C40.1118 30.4688 39.0625 31.5181 39.0625 32.8125C39.0625 34.1069 40.1118 35.1562 41.4062 35.1562Z" fill="#57B7EB"/>
    <path d="M37.5 30.4688V26.5625H36.7188C36.3043 26.5625 35.9069 26.7271 35.6139 27.0201C35.3209 27.3132 35.1562 27.7106 35.1562 28.125V37.5C35.1562 37.9144 35.3209 38.3118 35.6139 38.6049C35.9069 38.8979 36.3043 39.0625 36.7188 39.0625H46.0938C46.5082 39.0625 46.9056 38.8979 47.1986 38.6049C47.4916 38.3118 47.6562 37.9144 47.6562 37.5V36.7188H43.75C42.0924 36.7188 40.5027 36.0603 39.3306 34.8882C38.1585 33.7161 37.5 32.1264 37.5 30.4688Z" fill="#A1D51C"/>
    <path d="M42.1875 32.8125C42.619 32.8125 42.9688 32.4627 42.9688 32.0312C42.9688 31.5998 42.619 31.25 42.1875 31.25C41.756 31.25 41.4062 31.5998 41.4062 32.0312C41.4062 32.4627 41.756 32.8125 42.1875 32.8125Z" fill="#AAE1F9"/>
    <path d="M2.34375 9.375H11.7188V21.875H2.34375V9.375Z" fill="#C4F236"/>
    <path d="M21.0938 14.0625C24.5455 14.0625 27.3438 11.2643 27.3438 7.8125C27.3438 4.36072 24.5455 1.5625 21.0938 1.5625C17.642 1.5625 14.8438 4.36072 14.8438 7.8125C14.8438 11.2643 17.642 14.0625 21.0938 14.0625Z" fill="#F89C8D"/>
    <path d="M19.5312 10.1562V5.46875L24.2188 7.8125L19.5312 10.1562Z" fill="#AAE1F9"/>
    <path d="M23.4377 11.7188C21.7801 11.7188 20.1904 11.0603 19.0183 9.88817C17.8462 8.71607 17.1877 7.12635 17.1877 5.46875C17.1857 4.38596 17.4686 3.32169 18.0081 2.38281C17.1849 2.86639 16.4835 3.53211 15.9576 4.32889C15.4317 5.12568 15.0953 6.03235 14.9743 6.97933C14.8532 7.92632 14.9507 8.88844 15.2593 9.79189C15.5679 10.6953 16.0793 11.5161 16.7544 12.1911C17.4295 12.8662 18.2502 13.3777 19.1537 13.6862C20.0571 13.9948 21.0192 14.0923 21.9662 13.9713C22.9132 13.8503 23.8199 13.5139 24.6167 12.988C25.4134 12.4621 26.0792 11.7607 26.5627 10.9375C25.6086 11.4699 24.5302 11.7395 23.4377 11.7188Z" fill="#F8664F"/>
    <path d="M46.0938 2.34375H36.7188C35.8558 2.34375 35.1562 3.04331 35.1562 3.90625V13.2812C35.1562 14.1442 35.8558 14.8438 36.7188 14.8438H46.0938C46.9567 14.8438 47.6562 14.1442 47.6562 13.2812V3.90625C47.6562 3.04331 46.9567 2.34375 46.0938 2.34375Z" fill="#AAE1F9"/>
    <path d="M37.5 6.25V2.34375H36.7188C36.3043 2.34375 35.9069 2.50837 35.6139 2.8014C35.3209 3.09442 35.1562 3.49185 35.1562 3.90625V13.2812C35.1562 13.6957 35.3209 14.0931 35.6139 14.3861C35.9069 14.6791 36.3043 14.8438 36.7188 14.8438H46.0938C46.5082 14.8438 46.9056 14.6791 47.1986 14.3861C47.4916 14.0931 47.6562 13.6957 47.6562 13.2812V12.5H43.75C42.0924 12.5 40.5027 11.8415 39.3306 10.6694C38.1585 9.49732 37.5 7.9076 37.5 6.25Z" fill="#57B7EB"/>
    <path d="M4.6875 14.8438V9.375H2.34375V21.875H11.7188V19.5312H9.375C8.1318 19.5312 6.93951 19.0374 6.06044 18.1583C5.18136 17.2792 4.6875 16.087 4.6875 14.8438Z" fill="#A1D51C"/>
    <path d="M14.8926 33.7227L17.5988 32.1602L20.7238 37.5727C20.931 37.9315 20.9872 38.358 20.8799 38.7583C20.7727 39.1585 20.5108 39.4998 20.152 39.707C19.7931 39.9142 19.3666 39.9704 18.9663 39.8631C18.5661 39.7559 18.2248 39.494 18.0176 39.1352L14.8926 33.7227Z" fill="#F8664F"/>
    <path d="M19.5781 35.5859L17.6016 32.1562L14.8906 33.7188L16.7422 36.9219L18.0938 36.1406L19.5781 35.5859Z" fill="#CC5144"/>
    <path d="M31.4453 29.5781L18.0937 34.5781L14.1875 27.8125L25.1953 18.75L31.4453 29.5781Z" fill="#C4F236"/>
    <path d="M10.8076 29.7664L14.1904 27.8132L18.0966 34.5789L14.7138 36.532C14.1755 36.8428 13.5358 36.927 12.9354 36.7661C12.335 36.6052 11.8231 36.2125 11.5122 35.6742L9.94974 32.9679C9.63895 32.4296 9.55473 31.7899 9.7156 31.1895C9.87647 30.5891 10.2693 30.0772 10.8076 29.7664Z" fill="#F89C8D"/>
    <path d="M8.59175 33.7477L9.94488 32.9664L11.5074 35.6727L10.1543 36.4539C9.79538 36.6611 9.3689 36.7173 8.96863 36.61C8.56836 36.5028 8.22709 36.2409 8.01988 35.8821C7.81269 35.5232 7.75654 35.0967 7.86379 34.6964C7.97103 34.2962 8.23289 33.9549 8.59175 33.7477Z" fill="#CC5144"/>
    <path d="M19 32.1875C18.9191 32.2177 18.8407 32.2543 18.7656 32.2969L17.2734 33.1562L18.0937 34.5781L31.4453 29.5781L30.4688 27.8906L19 32.1875Z" fill="#A1D51C"/>
    <path d="M16.8436 33.4062C16.2219 33.762 15.5143 33.9399 14.7983 33.9206C14.0823 33.9013 13.3854 33.6855 12.7838 33.2967C12.1821 32.908 11.699 32.3614 11.3871 31.7166C11.0752 31.0717 10.9467 30.3536 11.0155 29.6406L10.8045 29.7656C10.5376 29.9194 10.3037 30.1243 10.116 30.3685C9.92839 30.6127 9.79073 30.8916 9.71092 31.1891C9.6311 31.4866 9.61071 31.7968 9.6509 32.1022C9.69109 32.4076 9.79107 32.702 9.94514 32.9688L11.5076 35.6719C11.6614 35.9388 11.8663 36.1727 12.1105 36.3603C12.3548 36.548 12.6336 36.6857 12.9311 36.7655C13.2286 36.8453 13.5389 36.8657 13.8442 36.8255C14.1496 36.7853 14.4441 36.6853 14.7108 36.5312L18.0936 34.5781L17.2733 33.1562L16.8436 33.4062Z" fill="#F8664F"/>
    <path d="M28.9063 42.1875H27.3438V34.5312C27.3438 34.3241 27.2614 34.1253 27.1149 33.9788C26.9684 33.8323 26.7697 33.75 26.5625 33.75C26.3553 33.75 26.1566 33.8323 26.0101 33.9788C25.8636 34.1253 25.7813 34.3241 25.7813 34.5312V42.1875H5.46875V26.5625H11.9688C12.176 26.5625 12.3747 26.4802 12.5212 26.3337C12.6677 26.1872 12.75 25.9885 12.75 25.7812C12.75 25.574 12.6677 25.3753 12.5212 25.2288C12.3747 25.0823 12.176 25 11.9688 25H4.6875C4.4803 25 4.28159 25.0823 4.13507 25.2288C3.98856 25.3753 3.90625 25.574 3.90625 25.7812V42.1875H2.34375C2.13655 42.1875 1.93784 42.2698 1.79132 42.4163C1.64481 42.5628 1.5625 42.7616 1.5625 42.9688V44.5312C1.5625 45.5673 1.97405 46.5608 2.70661 47.2934C3.43918 48.026 4.43275 48.4375 5.46875 48.4375H25.7813C26.8173 48.4375 27.8108 48.026 28.5434 47.2934C29.276 46.5608 29.6875 45.5673 29.6875 44.5312V42.9688C29.6875 42.7616 29.6052 42.5628 29.4587 42.4163C29.3122 42.2698 29.1135 42.1875 28.9063 42.1875ZM28.125 44.5312C28.125 45.1529 27.8781 45.749 27.4385 46.1885C26.999 46.6281 26.4029 46.875 25.7813 46.875H24.2188V46.0938C24.2188 45.8866 24.1364 45.6878 23.9899 45.5413C23.8434 45.3948 23.6447 45.3125 23.4375 45.3125C23.2303 45.3125 23.0316 45.3948 22.8851 45.5413C22.7386 45.6878 22.6563 45.8866 22.6563 46.0938V46.875H8.59375V46.0938C8.59375 45.8866 8.51144 45.6878 8.36493 45.5413C8.21841 45.3948 8.0197 45.3125 7.8125 45.3125C7.6053 45.3125 7.40659 45.3948 7.26007 45.5413C7.11356 45.6878 7.03125 45.8866 7.03125 46.0938V46.875H5.46875C4.84715 46.875 4.25101 46.6281 3.81147 46.1885C3.37193 45.749 3.125 45.1529 3.125 44.5312V43.75H28.125V44.5312ZM42.1875 6.25H43.75C43.9572 6.25 44.1559 6.16769 44.3024 6.02118C44.4489 5.87466 44.5313 5.67595 44.5313 5.46875C44.5313 5.26155 44.4489 5.06284 44.3024 4.91632C44.1559 4.76981 43.9572 4.6875 43.75 4.6875H42.1875C41.5659 4.6875 40.9698 4.93443 40.5302 5.37397C40.0907 5.81351 39.8438 6.40965 39.8438 7.03125V7.8125H39.0625C38.8553 7.8125 38.6566 7.89481 38.5101 8.04132C38.3636 8.18784 38.2813 8.38655 38.2813 8.59375C38.2813 8.80095 38.3636 8.99966 38.5101 9.14618C38.6566 9.29269 38.8553 9.375 39.0625 9.375H39.8438V11.7188C39.8438 11.926 39.9261 12.1247 40.0726 12.2712C40.2191 12.4177 40.4178 12.5 40.625 12.5C40.8322 12.5 41.0309 12.4177 41.1774 12.2712C41.3239 12.1247 41.4063 11.926 41.4063 11.7188V9.375H42.1875C42.3947 9.375 42.5934 9.29269 42.7399 9.14618C42.8864 8.99966 42.9688 8.80095 42.9688 8.59375C42.9688 8.38655 42.8864 8.18784 42.7399 8.04132C42.5934 7.89481 42.3947 7.8125 42.1875 7.8125H41.4063V7.03125C41.4063 6.82405 41.4886 6.62534 41.6351 6.47882C41.7816 6.33231 41.9803 6.25 42.1875 6.25Z" fill="#39519D"/>
    <path d="M46.0937 1.5625H36.7187C36.0971 1.5625 35.501 1.80943 35.0615 2.24897C34.6219 2.68851 34.375 3.28465 34.375 3.90625V5.46875C34.375 5.67595 34.4573 5.87466 34.6038 6.02118C34.7503 6.16769 34.949 6.25 35.1562 6.25C35.3635 6.25 35.5622 6.16769 35.7087 6.02118C35.8552 5.87466 35.9375 5.67595 35.9375 5.46875V3.90625C35.9375 3.69905 36.0198 3.50034 36.1663 3.35382C36.3128 3.20731 36.5115 3.125 36.7187 3.125H46.0937C46.3009 3.125 46.4997 3.20731 46.6462 3.35382C46.7927 3.50034 46.875 3.69905 46.875 3.90625V13.2812C46.875 13.4885 46.7927 13.6872 46.6462 13.8337C46.4997 13.9802 46.3009 14.0625 46.0937 14.0625H36.7187C36.5115 14.0625 36.3128 13.9802 36.1663 13.8337C36.0198 13.6872 35.9375 13.4885 35.9375 13.2812V8.59375C35.9375 8.38655 35.8552 8.18784 35.7087 8.04132C35.5622 7.89481 35.3635 7.8125 35.1562 7.8125C34.949 7.8125 34.7503 7.89481 34.6038 8.04132C34.4573 8.18784 34.375 8.38655 34.375 8.59375V13.2812C34.375 13.9029 34.6219 14.499 35.0615 14.9385C35.501 15.3781 36.0971 15.625 36.7187 15.625H46.0937C46.7154 15.625 47.3115 15.3781 47.751 14.9385C48.1906 14.499 48.4375 13.9029 48.4375 13.2812V3.90625C48.4375 3.28465 48.1906 2.68851 47.751 2.24897C47.3115 1.80943 46.7154 1.5625 46.0937 1.5625ZM38.2812 32.8125C38.2812 33.4306 38.4645 34.0348 38.8079 34.5487C39.1513 35.0626 39.6393 35.4631 40.2104 35.6996C40.7814 35.9361 41.4097 35.998 42.0159 35.8775C42.6221 35.7569 43.1789 35.4592 43.616 35.0222C44.053 34.5852 44.3506 34.0283 44.4712 33.4222C44.5918 32.816 44.5299 32.1876 44.2934 31.6166C44.0568 31.0456 43.6563 30.5575 43.1424 30.2142C42.6285 29.8708 42.0243 29.6875 41.4062 29.6875C40.5774 29.6875 39.7826 30.0167 39.1965 30.6028C38.6105 31.1888 38.2812 31.9837 38.2812 32.8125ZM42.9687 32.8125C42.9687 33.1215 42.8771 33.4236 42.7054 33.6806C42.5337 33.9375 42.2897 34.1378 42.0042 34.2561C41.7187 34.3743 41.4045 34.4053 41.1014 34.345C40.7983 34.2847 40.5199 34.1359 40.3014 33.9174C40.0829 33.6988 39.9341 33.4204 39.8738 33.1173C39.8135 32.8142 39.8444 32.5001 39.9627 32.2146C40.0809 31.929 40.2812 31.685 40.5382 31.5133C40.7951 31.3416 41.0972 31.25 41.4062 31.25C41.8207 31.25 42.2181 31.4146 42.5111 31.7076C42.8041 32.0007 42.9687 32.3981 42.9687 32.8125Z" fill="#39519D"/>
    <path d="M46.0938 25.7812H36.7188C36.0972 25.7812 35.501 26.0281 35.0615 26.4677C34.6219 26.9072 34.375 27.5034 34.375 28.125V37.5C34.375 38.1216 34.6219 38.7177 35.0615 39.1572C35.501 39.5968 36.0972 39.8437 36.7188 39.8437H46.0938C46.7154 39.8437 47.3115 39.5968 47.751 39.1572C48.1906 38.7177 48.4375 38.1216 48.4375 37.5V35.9375C48.4375 35.7303 48.3552 35.5315 48.2087 35.385C48.0622 35.2385 47.8635 35.1562 47.6563 35.1562C47.4491 35.1562 47.2503 35.2385 47.1038 35.385C46.9573 35.5315 46.875 35.7303 46.875 35.9375V37.5C46.875 37.7072 46.7927 37.9059 46.6462 38.0524C46.4997 38.1989 46.301 38.2812 46.0938 38.2812H36.7188C36.5116 38.2812 36.3128 38.1989 36.1663 38.0524C36.0198 37.9059 35.9375 37.7072 35.9375 37.5V28.125C35.9375 27.9178 36.0198 27.719 36.1663 27.5725C36.3128 27.426 36.5116 27.3437 36.7188 27.3437H46.0938C46.301 27.3437 46.4997 27.426 46.6462 27.5725C46.7927 27.719 46.875 27.9178 46.875 28.125V32.8125C46.875 33.0197 46.9573 33.2184 47.1038 33.3649C47.2503 33.5114 47.4491 33.5937 47.6563 33.5937C47.8635 33.5937 48.0622 33.5114 48.2087 33.3649C48.3552 33.2184 48.4375 33.0197 48.4375 32.8125V28.125C48.4375 27.5034 48.1906 26.9072 47.751 26.4677C47.3115 26.0281 46.7154 25.7812 46.0938 25.7812ZM19.1172 10.8203C19.2415 10.8973 19.385 10.9379 19.5313 10.9375C19.6536 10.9367 19.774 10.9073 19.8828 10.8515L24.5703 8.50777C24.6983 8.44221 24.8057 8.3426 24.8807 8.21992C24.9557 8.09724 24.9953 7.95624 24.9953 7.81245C24.9953 7.66867 24.9557 7.52767 24.8807 7.40499C24.8057 7.28231 24.6983 7.1827 24.5703 7.11714L19.8828 4.77339C19.7639 4.71346 19.6316 4.68493 19.4986 4.6905C19.3655 4.69608 19.2361 4.73557 19.1226 4.80524C19.0091 4.8749 18.9153 4.97243 18.8501 5.08855C18.7848 5.20467 18.7504 5.33553 18.75 5.46871V10.1562C18.7497 10.289 18.7833 10.4196 18.8476 10.5358C18.9118 10.652 19.0046 10.7499 19.1172 10.8203ZM20.3125 6.73433L22.4688 7.81245L20.3125 8.89058V6.73433Z" fill="#39519D"/>
    <path d="M21.0938 14.8438C22.4844 14.8438 23.8438 14.4314 25.0001 13.6588C26.1564 12.8862 27.0576 11.788 27.5898 10.5032C28.122 9.21845 28.2612 7.8047 27.9899 6.44077C27.7186 5.07685 27.0489 3.824 26.0656 2.84066C25.0823 1.85732 23.8294 1.18766 22.4655 0.916357C21.1016 0.645054 19.6878 0.784296 18.403 1.31648C17.1182 1.84865 16.0201 2.74987 15.2475 3.90615C14.4749 5.06243 14.0625 6.42185 14.0625 7.8125C14.0625 9.67731 14.8033 11.4657 16.1219 12.7843C17.4405 14.103 19.2289 14.8438 21.0938 14.8438ZM21.0938 2.34375C22.1754 2.34375 23.2327 2.66449 24.132 3.2654C25.0314 3.86632 25.7323 4.72042 26.1462 5.7197C26.5601 6.71899 26.6684 7.81857 26.4574 8.8794C26.2464 9.94024 25.7256 10.9147 24.9607 11.6795C24.1959 12.4443 23.2215 12.9652 22.1607 13.1762C21.0998 13.3872 20.0002 13.2789 19.0009 12.865C18.0017 12.4511 17.1476 11.7501 16.5466 10.8508C15.9457 9.95145 15.625 8.89412 15.625 7.8125C15.625 6.3621 16.2012 4.9711 17.2268 3.94551C18.2523 2.91992 19.6433 2.34375 21.0938 2.34375ZM28.9062 17.9688C29.0275 17.9688 29.1472 17.9405 29.2556 17.8863C29.3641 17.832 29.4585 17.7533 29.5312 17.6563L31.875 14.5313C31.9993 14.3655 32.0527 14.1571 32.0234 13.952C31.9941 13.7469 31.8845 13.5618 31.7187 13.4375C31.553 13.3132 31.3446 13.2598 31.1395 13.2891C30.9344 13.3184 30.7493 13.428 30.625 13.5938L28.2812 16.7188C28.1569 16.8845 28.1035 17.0929 28.1329 17.298C28.1622 17.5031 28.2717 17.6882 28.4375 17.8125C28.5727 17.9139 28.7372 17.9688 28.9062 17.9688ZM30.625 20.7813C30.6978 20.8783 30.7921 20.957 30.9006 21.0113C31.0091 21.0655 31.1287 21.0938 31.25 21.0938C31.419 21.0938 31.5835 21.0389 31.7187 20.9375L34.8438 18.5938C35.0095 18.4694 35.1191 18.2844 35.1484 18.0792C35.1777 17.8741 35.1243 17.6658 35 17.5C34.8757 17.3342 34.6906 17.2247 34.4855 17.1954C34.2804 17.1661 34.072 17.2194 33.9062 17.3438L30.7813 19.6875C30.6155 19.8118 30.5059 19.9969 30.4766 20.202C30.4473 20.4071 30.5007 20.6155 30.625 20.7813ZM38.2812 22.5C38.2627 22.3964 38.2234 22.2977 38.1657 22.2097C38.108 22.1216 38.0332 22.0462 37.9456 21.9878C37.8581 21.9295 37.7596 21.8894 37.6562 21.87C37.5528 21.8506 37.4465 21.8523 37.3438 21.875L33.4375 22.6563C33.3349 22.6665 33.2353 22.6969 33.1445 22.7456C33.0536 22.7944 32.9732 22.8605 32.908 22.9403C32.7761 23.1015 32.7137 23.3084 32.7344 23.5156C32.7551 23.7228 32.8573 23.9133 33.0184 24.0452C33.1796 24.177 33.3865 24.2395 33.5938 24.2188H33.75L37.6562 23.4375C37.7598 23.4189 37.8586 23.3796 37.9466 23.322C38.0346 23.2643 38.1101 23.1894 38.1684 23.1019C38.2268 23.0143 38.2669 22.9159 38.2863 22.8125C38.3057 22.709 38.3039 22.6028 38.2812 22.5ZM2.34375 22.6563H11.7188C11.926 22.6563 12.1247 22.5739 12.2712 22.4274C12.4177 22.2809 12.5 22.0822 12.5 21.875V9.375C12.5 9.1678 12.4177 8.96909 12.2712 8.82258C12.1247 8.67606 11.926 8.59375 11.7188 8.59375H2.34375C2.13655 8.59375 1.93784 8.67606 1.79132 8.82258C1.64481 8.96909 1.5625 9.1678 1.5625 9.375V21.875C1.5625 22.0822 1.64481 22.2809 1.79132 22.4274C1.93784 22.5739 2.13655 22.6563 2.34375 22.6563ZM3.125 10.1563H10.9375V21.0938H3.125V10.1563Z" fill="#39519D"/>
    <path d="M8.59375 11.7188H7.03125C6.82405 11.7188 6.62534 11.8011 6.47882 11.9476C6.33231 12.0941 6.25 12.2928 6.25 12.5C6.25 12.7072 6.33231 12.9059 6.47882 13.0524C6.62534 13.1989 6.82405 13.2812 7.03125 13.2812H8.59375C8.80095 13.2812 8.99966 13.1989 9.14618 13.0524C9.29269 12.9059 9.375 12.7072 9.375 12.5C9.375 12.2928 9.29269 12.0941 9.14618 11.9476C8.99966 11.8011 8.80095 11.7188 8.59375 11.7188ZM8.59375 14.8438H5.46875C5.26155 14.8438 5.06284 14.9261 4.91632 15.0726C4.76981 15.2191 4.6875 15.4178 4.6875 15.625C4.6875 15.8322 4.76981 16.0309 4.91632 16.1774C5.06284 16.3239 5.26155 16.4062 5.46875 16.4062H8.59375C8.80095 16.4062 8.99966 16.3239 9.14618 16.1774C9.29269 16.0309 9.375 15.8322 9.375 15.625C9.375 15.4178 9.29269 15.2191 9.14618 15.0726C8.99966 14.9261 8.80095 14.8438 8.59375 14.8438ZM8.59375 17.9688H5.46875C5.26155 17.9688 5.06284 18.0511 4.91632 18.1976C4.76981 18.3441 4.6875 18.5428 4.6875 18.75C4.6875 18.9572 4.76981 19.1559 4.91632 19.3024C5.06284 19.4489 5.26155 19.5312 5.46875 19.5312H8.59375C8.80095 19.5312 8.99966 19.4489 9.14618 19.3024C9.29269 19.1559 9.375 18.9572 9.375 18.75C9.375 18.5428 9.29269 18.3441 9.14618 18.1976C8.99966 18.0511 8.80095 17.9688 8.59375 17.9688ZM28.2187 22.4219C28.1674 22.3326 28.0991 22.2543 28.0175 22.1915C27.936 22.1287 27.8428 22.0825 27.7435 22.0557C27.6441 22.0288 27.5404 22.0218 27.4383 22.0351C27.3362 22.0483 27.2377 22.0815 27.1484 22.1328C27.0592 22.1841 26.9809 22.2525 26.9181 22.334C26.8552 22.4156 26.8091 22.5087 26.7822 22.6081C26.7554 22.7075 26.7484 22.8112 26.7616 22.9133C26.7749 23.0154 26.8081 23.1139 26.8594 23.2031L30.3047 29.1641L17.8047 33.8516H17.6875L15.6562 35.0234L14.3047 35.8047C14.1268 35.9076 13.9303 35.9743 13.7265 36.0011C13.5227 36.0279 13.3157 36.0143 13.1172 35.9609C12.7184 35.8532 12.3786 35.592 12.1719 35.2344L10.6094 32.5312C10.4256 32.1776 10.3838 31.767 10.4928 31.3836C10.6017 31.0002 10.853 30.6729 11.1953 30.4688L13.8984 28.9062L15.8516 32.2891C15.9204 32.4083 16.0195 32.5072 16.1389 32.5758C16.2582 32.6444 16.3936 32.6802 16.5312 32.6797C16.6686 32.6802 16.8038 32.6445 16.923 32.5762C17.0422 32.5078 17.1412 32.4093 17.2102 32.2904C17.2791 32.1716 17.3155 32.0366 17.3156 31.8992C17.3157 31.7618 17.2796 31.6268 17.2109 31.5078L15.1953 28.0234L25 19.9375L25.3203 20.4922C25.3716 20.5814 25.44 20.6597 25.5215 20.7226C25.6031 20.7854 25.6962 20.8315 25.7956 20.8584C25.895 20.8852 25.9987 20.8922 26.1008 20.879C26.2029 20.8658 26.3014 20.8325 26.3906 20.7812C26.4799 20.73 26.5582 20.6616 26.621 20.58C26.6838 20.4985 26.73 20.4053 26.7568 20.306C26.7837 20.2066 26.7907 20.1029 26.7774 20.0008C26.7642 19.8987 26.731 19.8002 26.6797 19.7109L25.8984 18.3594C25.8412 18.2615 25.7633 18.1772 25.6702 18.1125C25.5771 18.0477 25.4711 18.004 25.3594 17.9844C25.2471 17.9632 25.1315 17.9669 25.0208 17.9953C24.9102 18.0236 24.807 18.0759 24.7187 18.1484L13.7812 27.1641L10.4531 29.0859C9.85587 29.4338 9.3908 29.9699 9.13069 30.6103C8.87058 31.2506 8.83012 31.9592 9.01562 32.625L8.23437 33.0703C7.83184 33.3015 7.50701 33.647 7.30107 34.063C7.09513 34.479 7.01736 34.9467 7.07761 35.407C7.13786 35.8673 7.33343 36.2993 7.63951 36.6482C7.94559 36.9972 8.3484 37.2474 8.79688 37.3672C8.99569 37.4199 9.20058 37.4461 9.40625 37.4453C9.81724 37.4436 10.2209 37.336 10.5781 37.1328L11.3594 36.6875C11.7347 37.0752 12.2066 37.3557 12.7266 37.5C12.9935 37.5747 13.2697 37.6115 13.5469 37.6094C14.096 37.6106 14.6355 37.465 15.1094 37.1875L15.7891 36.7969L17.3516 39.5078C17.6621 40.0447 18.1727 40.4366 18.7717 40.5977C19.3706 40.7587 20.0089 40.6759 20.5469 40.3672C20.8137 40.2134 21.0477 40.0086 21.2353 39.7643C21.423 39.5201 21.5607 39.2412 21.6405 38.9437C21.7203 38.6463 21.7407 38.336 21.7005 38.0306C21.6603 37.7252 21.5603 37.4308 21.4062 37.1641L19.9844 34.6875L31.7031 30.2891C31.8094 30.2491 31.9057 30.1865 31.9853 30.1055C32.0649 30.0246 32.1259 29.9272 32.1641 29.8203C32.2021 29.7146 32.2169 29.602 32.2074 29.4901C32.198 29.3782 32.1646 29.2697 32.1094 29.1719L28.2187 22.4219ZM9.76562 35.7734C9.67666 35.8249 9.57842 35.8582 9.47653 35.8717C9.37465 35.8851 9.27112 35.8782 9.17187 35.8516C8.97172 35.7996 8.80034 35.6703 8.69531 35.4922C8.64388 35.4032 8.6105 35.305 8.5971 35.2031C8.58369 35.1012 8.59052 34.9977 8.61719 34.8984C8.64386 34.7987 8.69004 34.7052 8.75307 34.6234C8.81609 34.5416 8.89471 34.4731 8.98437 34.4219L9.66406 34.0313L10.4453 35.3828L9.76562 35.7734ZM20.0469 37.9609C20.0983 38.0499 20.1317 38.1481 20.1451 38.25C20.1585 38.3519 20.1517 38.4554 20.125 38.5547C20.0693 38.7533 19.9373 38.9218 19.7578 39.0234C19.5794 39.1259 19.3677 39.1539 19.1687 39.1012C18.9698 39.0486 18.7997 38.9196 18.6953 38.7422L17.1328 36.0312L18.4297 35.2891H18.4922L20.0469 37.9609Z" fill="#39519D"/>
</svg>
