<svg width="9" height="9" viewBox="0 0 9 9" fill="none" xmlns="http://www.w3.org/2000/svg">
    <path d="M3.22012 3.08848L4.19437 1.12648C4.22273 1.0697 4.26635 1.02194 4.32033 0.98856C4.37431 0.955181 4.43653 0.9375 4.5 0.9375C4.56347 0.9375 4.62568 0.955181 4.67966 0.98856C4.73365 1.02194 4.77726 1.0697 4.80562 1.12648L5.77987 3.08848L7.95787 3.40498C8.02069 3.41369 8.0798 3.43989 8.12845 3.48058C8.17709 3.52128 8.21332 3.57483 8.23299 3.63513C8.25266 3.69542 8.25498 3.76003 8.23968 3.82159C8.22439 3.88314 8.1921 3.93915 8.1465 3.98323L6.57075 5.50948L6.94275 7.66573C6.99037 7.94248 6.69787 8.15323 6.44775 8.02273L4.5 7.00423L2.55187 8.02273C2.30212 8.1536 2.00962 7.94248 2.05725 7.66535L2.42925 5.5091L0.853498 3.98285C0.808118 3.93874 0.776022 3.88279 0.760859 3.82135C0.745696 3.7599 0.748075 3.69544 0.767724 3.63528C0.787373 3.57512 0.823504 3.52169 0.872011 3.48104C0.920518 3.44039 0.979455 3.41417 1.04212 3.40535L3.22012 3.08848Z" fill="#FFC42D"/>
</svg>
