<svg width="71" height="66" viewBox="0 0 71 66" fill="none" xmlns="http://www.w3.org/2000/svg">
    <path d="M41.25 64.8214H1.17857L3.53571 17.6786H38.8929L41.25 64.8214Z" fill="#EB423F"/>
    <path d="M50.6786 64.8214H41.25L38.8929 17.6786H48.3214L50.6786 64.8214Z" fill="#D13330"/>
    <path d="M69.5357 64.8214H60.1071L59.9598 62.9166V62.9151L57.75 34.1786H67.1786L69.3516 62.4186V62.4201L69.5357 64.8214Z" fill="#EBA72E"/>
    <path d="M16.5 38.8929H9.42857V29.4643L12.9643 27.1071L16.5 29.4643V38.8929ZM60.1071 64.8214H29.4643L31.8214 34.1786H57.75L60.1071 64.8214Z" fill="#F7B030"/>
    <path d="M68.3538 34.0881C68.331 33.7921 68.1973 33.5155 67.9795 33.3138C67.7616 33.1121 67.4756 33 67.1786 33H50.2676L49.4986 17.6197C49.4835 17.3177 49.3528 17.033 49.1338 16.8246C48.9147 16.6162 48.6239 16.5 48.3215 16.5H40.0715V10.6072C40.0721 8.91006 39.6653 7.23761 38.8853 5.73035C38.1054 4.22309 36.9751 2.92506 35.5893 1.94534C34.2036 0.965614 32.6029 0.332823 30.9218 0.100138C29.2407 -0.132546 27.5284 0.0416749 25.9286 0.608161C24.3288 0.0416749 22.6165 -0.132546 20.9354 0.100138C19.2543 0.332823 17.6536 0.965614 16.2679 1.94534C14.8821 2.92506 13.7518 4.22309 12.9719 5.73035C12.1919 7.23761 11.7851 8.91006 11.7857 10.6072V16.5H3.53572C3.23334 16.5 2.94254 16.6162 2.72344 16.8246C2.50435 17.033 2.37374 17.3177 2.35862 17.6197L0.00147421 64.7625C-0.00651251 64.9221 0.0180138 65.0816 0.0735634 65.2313C0.129113 65.3811 0.214527 65.518 0.324616 65.6337C0.434705 65.7495 0.567173 65.8416 0.713972 65.9046C0.860772 65.9676 1.01884 66 1.17857 66H69.5358C69.6982 66 69.8588 65.9665 70.0077 65.9015C70.1565 65.8365 70.2903 65.7414 70.4006 65.6223C70.511 65.5031 70.5955 65.3624 70.6489 65.209C70.7023 65.0557 70.7234 64.8929 70.711 64.731L68.3538 34.0881ZM64.8215 59.8747L67.3336 63.6429H62.31L64.8215 59.8747ZM68.0148 60.4152L65.965 57.3406L63.7667 35.3572H66.0873L68.0148 60.4152ZM61.3977 35.3572L63.6076 57.4474L61.0206 61.327L59.0228 35.3572H61.3977ZM47.9075 33H45.6893L44.8572 18.8572H47.1996L47.9075 33ZM42.4959 18.8572L43.328 33H40.8383L40.1311 18.8572H42.4959ZM29.4643 2.35716C31.6516 2.35966 33.7486 3.22965 35.2952 4.77629C36.8418 6.32292 37.7118 8.41989 37.7143 10.6072V16.5H33V10.6072C33 9.02697 32.6464 7.4668 31.9651 6.04102C31.2838 4.61525 30.292 3.36001 29.0626 2.36733C29.1964 2.36075 29.3303 2.35736 29.4643 2.35716ZM25.9286 3.15476C27.3382 3.82472 28.5291 4.8803 29.3634 6.19923C30.1978 7.51817 30.6414 9.04649 30.6429 10.6072V16.5H21.2143V10.6072C21.2158 9.04649 21.6594 7.51817 22.4938 6.19923C23.3281 4.8803 24.519 3.82472 25.9286 3.15476ZM14.1429 10.6072C14.1454 8.41989 15.0154 6.32292 16.562 4.77629C18.1086 3.22965 20.2056 2.35966 22.3929 2.35716C22.5277 2.35716 22.6615 2.36099 22.7946 2.36733C21.5651 3.35999 20.5734 4.61522 19.8921 6.041C19.2107 7.46678 18.8571 9.02696 18.8572 10.6072V16.5H14.1429V10.6072ZM28.373 63.6429H2.41755L4.65684 18.8572H11.7857V26.4765L8.77477 28.4837C8.61335 28.5914 8.481 28.7372 8.38945 28.9082C8.29791 29.0793 8.25001 29.2703 8.25001 29.4643V38.8929C8.25001 39.2055 8.37418 39.5052 8.59521 39.7263C8.81623 39.9473 9.11601 40.0715 9.42858 40.0715H16.5C16.8126 40.0715 17.1124 39.9473 17.3334 39.7263C17.5544 39.5052 17.6786 39.2055 17.6786 38.8929V29.4643C17.6786 29.2703 17.6307 29.0793 17.5391 28.9082C17.4476 28.7372 17.3153 28.5914 17.1538 28.4837L14.1429 26.4765V18.8572H30.6429V22.3929C30.6429 22.7055 30.7671 23.0052 30.9881 23.2263C31.2091 23.4473 31.5089 23.5715 31.8215 23.5715C32.134 23.5715 32.4338 23.4473 32.6548 23.2263C32.8759 23.0052 33 22.7055 33 22.3929V18.8572H37.7718L38.4789 33H31.8215C31.5245 33 31.2385 33.1121 31.0207 33.3138C30.8028 33.5155 30.6691 33.7921 30.6463 34.0881L28.373 63.6429ZM12.9643 28.5237L15.3214 30.095V37.7143H10.6072V30.095L12.9643 28.5237ZM32.9128 35.3572H56.6587L58.8345 63.6429H30.737L32.9128 35.3572Z" fill="black"/>
    <path d="M50.6786 40.0714C50.366 40.0714 50.0662 40.1956 49.8452 40.4166C49.6242 40.6376 49.5 40.9374 49.5 41.25V50.6786C49.4989 51.616 49.1261 52.5147 48.4633 53.1775C47.8004 53.8404 46.9017 54.2132 45.9643 54.2143H43.6071C42.6697 54.2132 41.771 53.8404 41.1082 53.1775C40.4453 52.5147 40.0725 51.616 40.0714 50.6786V41.25C40.0714 40.9374 39.9473 40.6376 39.7262 40.4166C39.5052 40.1956 39.2054 40.0714 38.8929 40.0714C38.5803 40.0714 38.2805 40.1956 38.0595 40.4166C37.8385 40.6376 37.7143 40.9374 37.7143 41.25V50.6786C37.716 52.2409 38.3375 53.7388 39.4422 54.8435C40.5469 55.9483 42.0448 56.5697 43.6071 56.5714H45.9643C47.5266 56.5697 49.0245 55.9483 50.1292 54.8435C51.234 53.7388 51.8554 52.2409 51.8571 50.6786V41.25C51.8571 40.9374 51.733 40.6376 51.5119 40.4166C51.2909 40.1956 50.9911 40.0714 50.6786 40.0714Z" fill="black"/>
</svg>
