<svg width="20" height="20" viewBox="0 0 20 20" fill="none" xmlns="http://www.w3.org/2000/svg">
    <path d="M10 9.375C12.4162 9.375 14.375 7.41625 14.375 5C14.375 2.58375 12.4162 0.625 10 0.625C7.58375 0.625 5.625 2.58375 5.625 5C5.625 7.41625 7.58375 9.375 10 9.375Z" fill="white"/>
    <path d="M13.1062 10.625H6.89375C5.5632 10.6267 4.28762 11.1559 3.34678 12.0968C2.40594 13.0376 1.87665 14.3132 1.875 15.6438V18.75C1.875 18.9158 1.94085 19.0747 2.05806 19.1919C2.17527 19.3092 2.33424 19.375 2.5 19.375H17.5C17.6658 19.375 17.8247 19.3092 17.9419 19.1919C18.0592 19.0747 18.125 18.9158 18.125 18.75V15.6438C18.1233 14.3132 17.5941 13.0376 16.6532 12.0968C15.7124 11.1559 14.4368 10.6267 13.1062 10.625Z" fill="white"/>
</svg>
