<svg width="25" height="25" viewBox="0 0 25 25" fill="none" xmlns="http://www.w3.org/2000/svg">
    <g clip-path="url(#clip0_427_7231)">
        <path d="M22.8027 10.3027H14.6973V2.19727C14.6973 0.98374 13.7135 0 12.5 0C11.2865 0 10.3027 0.98374 10.3027 2.19727V10.3027H2.19727C0.98374 10.3027 0 11.2865 0 12.5C0 13.7135 0.98374 14.6973 2.19727 14.6973H10.3027V22.8027C10.3027 24.0163 11.2865 25 12.5 25C13.7135 25 14.6973 24.0163 14.6973 22.8027V14.6973H22.8027C24.0163 14.6973 25 13.7135 25 12.5C25 11.2865 24.0163 10.3027 22.8027 10.3027Z" fill="#1544AB"/>
    </g>
    <defs>
        <clipPath id="clip0_427_7231">
            <rect width="25" height="25" fill="white"/>
        </clipPath>
    </defs>
</svg>
