<svg width="50" height="50" viewBox="0 0 50 50" fill="none" xmlns="http://www.w3.org/2000/svg">
    <path fill-rule="evenodd" clip-rule="evenodd" d="M7.59587 15.3198L9.67921 17.4031C9.77586 17.4999 9.89066 17.5767 10.017 17.6292C10.1434 17.6816 10.2789 17.7085 10.4157 17.7085C10.5525 17.7085 10.6879 17.6816 10.8143 17.6292C10.9407 17.5767 11.0555 17.4999 11.1521 17.4031L15.3198 13.2365C15.5096 13.04 15.6146 12.7769 15.6122 12.5037C15.6098 12.2306 15.5003 11.9694 15.3071 11.7762C15.114 11.5831 14.8527 11.4735 14.5796 11.4712C14.3065 11.4688 14.0434 11.5738 13.8469 11.7635L10.4157 15.1937L9.06879 13.8469C8.87233 13.6571 8.6092 13.5521 8.33608 13.5545C8.06296 13.5569 7.8017 13.6664 7.60856 13.8596C7.41543 14.0527 7.30588 14.314 7.30351 14.5871C7.30113 14.8602 7.40613 15.1233 7.59587 15.3198ZM18.749 13.5417H24.999C25.2753 13.5417 25.5402 13.4319 25.7356 13.2366C25.9309 13.0412 26.0407 12.7763 26.0407 12.5C26.0407 12.2237 25.9309 11.9588 25.7356 11.7634C25.5402 11.5681 25.2753 11.4583 24.999 11.4583H18.749C18.4727 11.4583 18.2078 11.5681 18.0124 11.7634C17.8171 11.9588 17.7073 12.2237 17.7073 12.5C17.7073 12.7763 17.8171 13.0412 18.0124 13.2366C18.2078 13.4319 18.4727 13.5417 18.749 13.5417ZM18.749 17.7083H33.3323C33.6086 17.7083 33.8736 17.5986 34.0689 17.4032C34.2643 17.2079 34.374 16.9429 34.374 16.6667C34.374 16.3904 34.2643 16.1254 34.0689 15.9301C33.8736 15.7347 33.6086 15.625 33.3323 15.625H18.749C18.4727 15.625 18.2078 15.7347 18.0124 15.9301C17.8171 16.1254 17.7073 16.3904 17.7073 16.6667C17.7073 16.9429 17.8171 17.2079 18.0124 17.4032C18.2078 17.5986 18.4727 17.7083 18.749 17.7083ZM7.59587 25.7365L9.67921 27.8198C9.77586 27.9166 9.89066 27.9934 10.017 28.0458C10.1434 28.0982 10.2789 28.1252 10.4157 28.1252C10.5525 28.1252 10.6879 28.0982 10.8143 28.0458C10.9407 27.9934 11.0555 27.9166 11.1521 27.8198L15.3198 23.6531C15.5096 23.4567 15.6146 23.1935 15.6122 22.9204C15.6098 22.6473 15.5003 22.386 15.3071 22.1929C15.114 21.9998 14.8527 21.8902 14.5796 21.8878C14.3065 21.8855 14.0434 21.9905 13.8469 22.1802L10.4157 25.6104L9.06879 24.2635C8.87233 24.0738 8.6092 23.9688 8.33608 23.9712C8.06296 23.9735 7.8017 24.0831 7.60856 24.2762C7.41543 24.4694 7.30588 24.7306 7.30351 25.0037C7.30113 25.2769 7.40613 25.54 7.59587 25.7365ZM7.59587 36.1531L9.67921 38.2365C9.77586 38.3333 9.89066 38.4101 10.017 38.4625C10.1434 38.5149 10.2789 38.5419 10.4157 38.5419C10.5525 38.5419 10.6879 38.5149 10.8143 38.4625C10.9407 38.4101 11.0555 38.3333 11.1521 38.2365L15.3198 34.0698C15.5096 33.8733 15.6146 33.6102 15.6122 33.3371C15.6098 33.064 15.5003 32.8027 15.3071 32.6096C15.114 32.4164 14.8527 32.3069 14.5796 32.3045C14.3065 32.3021 14.0434 32.4071 13.8469 32.5969L10.4157 36.0271L9.06879 34.6802C8.87233 34.4905 8.6092 34.3855 8.33608 34.3878C8.06296 34.3902 7.8017 34.4998 7.60856 34.6929C7.41543 34.886 7.30588 35.1473 7.30351 35.4204C7.30113 35.6935 7.40613 35.9567 7.59587 36.1531ZM18.749 23.9583H33.3323C33.6086 23.9583 33.8736 23.8486 34.0689 23.6532C34.2643 23.4579 34.374 23.1929 34.374 22.9167C34.374 22.6404 34.2643 22.3754 34.0689 22.1801C33.8736 21.9847 33.6086 21.875 33.3323 21.875H18.749C18.4727 21.875 18.2078 21.9847 18.0124 22.1801C17.8171 22.3754 17.7073 22.6404 17.7073 22.9167C17.7073 23.1929 17.8171 23.4579 18.0124 23.6532C18.2078 23.8486 18.4727 23.9583 18.749 23.9583ZM18.749 28.125H27.0834C27.3596 28.125 27.6246 28.0152 27.8199 27.8199C28.0153 27.6245 28.125 27.3596 28.125 27.0833C28.125 26.8071 28.0153 26.5421 27.8199 26.3468C27.6246 26.1514 27.3596 26.0417 27.0834 26.0417H18.749C18.4727 26.0417 18.2078 26.1514 18.0124 26.3468C17.8171 26.5421 17.7073 26.8071 17.7073 27.0833C17.7073 27.3596 17.8171 27.6245 18.0124 27.8199C18.2078 28.0152 18.4727 28.125 18.749 28.125ZM32.273 38.2687L35.2188 41.2146C35.4141 41.4099 35.679 41.5196 35.9552 41.5196C36.2315 41.5196 36.4964 41.4099 36.6917 41.2146L42.5834 35.3229C42.7731 35.1264 42.8781 34.8633 42.8757 34.5902C42.8734 34.3171 42.7638 34.0558 42.5707 33.8627C42.3775 33.6695 42.1163 33.56 41.8432 33.5576C41.57 33.5553 41.3069 33.6602 41.1105 33.85L35.9552 39.0052L33.7459 36.7958C33.5494 36.6061 33.2863 36.5011 33.0132 36.5035C32.74 36.5058 32.4788 36.6154 32.2856 36.8085C32.0925 37.0016 31.983 37.2629 31.9806 37.536C31.9782 37.8092 32.0832 38.0723 32.273 38.2687ZM18.749 34.375H22.9167C23.193 34.375 23.4579 34.2652 23.6533 34.0699C23.8486 33.8745 23.9584 33.6096 23.9584 33.3333C23.9584 33.0571 23.8486 32.7921 23.6533 32.5968C23.4579 32.4014 23.193 32.2917 22.9167 32.2917H18.749C18.4727 32.2917 18.2078 32.4014 18.0124 32.5968C17.8171 32.7921 17.7073 33.0571 17.7073 33.3333C17.7073 33.6096 17.8171 33.8745 18.0124 34.0699C18.2078 34.2652 18.4727 34.375 18.749 34.375ZM18.749 38.5417H22.9167C23.193 38.5417 23.4579 38.4319 23.6533 38.2366C23.8486 38.0412 23.9584 37.7763 23.9584 37.5C23.9584 37.2237 23.8486 36.9588 23.6533 36.7634C23.4579 36.5681 23.193 36.4583 22.9167 36.4583H18.749C18.4727 36.4583 18.2078 36.5681 18.0124 36.7634C17.8171 36.9588 17.7073 37.2237 17.7073 37.5C17.7073 37.7763 17.8171 38.0412 18.0124 38.2366C18.2078 38.4319 18.4727 38.5417 18.749 38.5417Z" fill="#1544AB"/>
    <path fill-rule="evenodd" clip-rule="evenodd" d="M37.5 48.9583H6.24898C4.86765 48.9583 3.54289 48.4096 2.56613 47.4328C1.58938 46.4561 1.04065 45.1313 1.04065 43.75V6.25C1.04065 4.86866 1.58938 3.5439 2.56613 2.56715C3.54289 1.5904 4.86765 1.04166 6.24898 1.04166H27.4406C28.8219 1.04166 30.1469 1.59062 31.124 2.56666L39.099 10.5427C40.0752 11.5195 40.6237 12.844 40.624 14.225V26.474C45.4313 27.8344 48.9584 32.2583 48.9584 37.5C48.9584 43.824 43.824 48.9583 37.5 48.9583ZM38.5406 26.0885V14.225C38.5406 13.9937 38.5146 13.7646 38.4646 13.5417H33.3334C31.952 13.5417 30.6273 12.9929 29.6505 12.0162C28.6738 11.0394 28.125 9.71467 28.125 8.33333V3.20104C27.9005 3.15004 27.6709 3.12454 27.4406 3.125H6.24898C5.42018 3.125 4.62532 3.45424 4.03927 4.04029C3.45322 4.62634 3.12398 5.4212 3.12398 6.25V43.75C3.12398 44.5788 3.45322 45.3737 4.03927 45.9597C4.62532 46.5458 5.42018 46.875 6.24898 46.875H30.9146C29.4088 45.8189 28.1798 44.4154 27.3315 42.7835C26.4833 41.1515 26.0409 39.3392 26.0417 37.5C26.0417 31.176 31.1761 26.0417 37.5 26.0417C37.8511 26.0417 38.1979 26.0573 38.5406 26.0885ZM37.5 28.125C42.674 28.125 46.875 32.326 46.875 37.5C46.875 42.674 42.674 46.875 37.5 46.875C32.3261 46.875 28.125 42.674 28.125 37.5C28.125 32.326 32.3261 28.125 37.5 28.125ZM30.2084 4.59791V8.33333C30.2084 9.16213 30.5376 9.95699 31.1236 10.543C31.7097 11.1291 32.5046 11.4583 33.3334 11.4583H37.0677L30.2084 4.59791Z" fill="#1544AB"/>
</svg>
