<svg width="50" height="50" viewBox="0 0 50 50" fill="none" xmlns="http://www.w3.org/2000/svg">
    <g clip-path="url(#clip0_491_5238)">
        <path d="M22.2851 8.36914C22.2851 7.84179 21.8457 7.39257 21.3086 7.40234L19.6777 7.41211C19.5898 7.14843 19.4824 6.89453 19.3555 6.65039L20.5078 5.47851C20.8887 5.09765 20.8789 4.48242 20.498 4.10156L18.8477 2.46094C18.4961 2.09961 17.8223 2.08008 17.4707 2.4707L16.3184 3.63281C16.0742 3.51562 15.8203 3.4082 15.5566 3.32031L15.5469 1.68945C15.5566 1.16211 15.0977 0.712891 14.5703 0.712891L12.2461 0.722656C11.709 0.722656 11.2695 1.16211 11.2695 1.69922L11.2793 3.33008C11.0156 3.41797 10.7617 3.52539 10.5176 3.65234L9.3457 2.50976C8.96484 2.13867 8.34961 2.13867 7.96875 2.51953L6.32812 4.16992C5.95703 4.55078 5.95703 5.17578 6.33789 5.54687L7.5 6.69922C7.38281 6.94336 7.27539 7.19726 7.1875 7.46093L5.55664 7.4707C4.99023 7.4707 4.58008 7.91992 4.58008 8.44726L4.58984 10.7812C4.59961 11.3184 5.02929 11.7578 5.57617 11.748L7.20703 11.7383C7.30468 12.0019 7.40234 12.2559 7.52929 12.5L6.37695 13.6523C6.00586 14.0234 6.00586 14.668 6.38672 15.0293L8.03711 16.6699C8.4082 17.0508 9.05273 17.041 9.42382 16.6601L10.5664 15.5078C10.8105 15.625 11.0644 15.7324 11.3281 15.8203L11.3379 17.4512C11.3281 17.9785 11.7969 18.4375 12.3144 18.4277L14.6387 18.418C15.166 18.4277 15.625 17.9492 15.6152 17.4316L15.6055 15.8008C15.8691 15.7129 16.123 15.6055 16.3672 15.4785L17.5195 16.6309C17.8809 17.0117 18.5449 17.0019 18.9062 16.6211L20.5469 14.9707C20.9277 14.5898 20.918 13.9746 20.5371 13.584L19.375 12.4414C19.4922 12.1973 19.5996 11.9434 19.6875 11.6797L21.3184 11.6699C21.8555 11.6699 22.2949 11.2207 22.2851 10.6934C22.2949 10.6934 22.2851 8.36914 22.2851 8.36914ZM19.2969 10.6348C19.0625 10.6348 18.8574 10.8008 18.7988 11.0254C18.6816 11.4746 18.5059 11.9043 18.2812 12.2949C18.1641 12.5 18.2031 12.7539 18.3691 12.9199L19.7559 14.2871L18.2129 15.8398L16.8262 14.4726C16.6602 14.3066 16.4062 14.2773 16.2012 14.3945C15.8008 14.6289 15.3711 14.8047 14.9414 14.9219C14.7168 14.9805 14.5605 15.1855 14.5605 15.4199L14.5703 17.373L12.3828 17.3828L12.373 15.4394C12.373 15.2051 12.2168 14.9902 11.9824 14.9414C11.4355 14.8437 10.9766 14.4824 10.459 14.3555C10.3223 14.3555 10.1855 14.4043 10.0879 14.5117L8.7207 15.8984L7.16797 14.3555L8.53515 12.9687C8.70117 12.8027 8.73046 12.5488 8.61328 12.3437C8.3789 11.9434 8.20312 11.5137 8.08593 11.084C8.02734 10.8496 7.8125 10.6934 7.57812 10.6934L5.63476 10.7031L5.625 8.52539L7.56836 8.51562C7.80273 8.50585 8.00781 8.3496 8.0664 8.125C8.18359 7.68554 8.35937 7.25586 8.58398 6.85547C8.70117 6.65039 8.66211 6.38672 8.49609 6.23047L7.1289 4.85351L8.67187 3.30078L10.0586 4.66797C10.2246 4.83398 10.4785 4.86328 10.6836 4.75586C11.084 4.52148 11.5039 4.3457 11.9434 4.22851C12.168 4.16992 12.3242 3.95508 12.3242 3.7207L12.3144 1.77734L14.5019 1.76758L14.5117 3.71094C14.5117 3.94531 14.6777 4.15039 14.9023 4.20898C15.3516 4.32617 15.7812 4.51172 16.1719 4.72656C16.3769 4.84375 16.6309 4.80469 16.7969 4.63867L18.1641 3.25195L19.7168 4.78515L18.3496 6.17187C18.1836 6.33789 18.1543 6.60156 18.2715 6.80664C18.5059 7.20703 18.6816 7.62695 18.7988 8.0664C18.8574 8.29101 19.0723 8.44726 19.3066 8.44726L21.25 8.4375L21.2598 10.625L19.2969 10.6348Z" fill="black"/>
        <path d="M18.2813 12.2949C18.5059 11.9043 18.6719 11.4746 18.7988 11.0254C18.8574 10.8008 19.0625 10.6348 19.2969 10.6348L21.2402 10.625L21.2305 8.4375L19.2871 8.44727C19.0527 8.44727 18.8379 8.29102 18.7793 8.06641C18.6621 7.62696 18.4766 7.20703 18.252 6.80664C18.1348 6.60156 18.1641 6.33789 18.3301 6.17188L19.6973 4.78516L18.1641 3.26172L16.7969 4.64844C16.6309 4.81445 16.377 4.85352 16.1719 4.73633C15.7813 4.51172 15.3516 4.33594 14.9023 4.21875C14.6777 4.16016 14.5117 3.95508 14.5117 3.7207L14.502 1.77734L12.3145 1.78711L12.3242 3.73047C12.3242 3.96485 12.168 4.17969 11.9434 4.23828C11.5039 4.35547 11.084 4.54102 10.6836 4.76563C10.4785 4.88281 10.2246 4.85352 10.0586 4.67774L8.67188 3.31055L7.12891 4.85352L8.51562 6.22071C8.68164 6.38672 8.7207 6.64063 8.60352 6.84571C8.37891 7.2461 8.20312 7.67578 8.08594 8.11524C8.02734 8.33985 7.82226 8.4961 7.58789 8.50586L5.64453 8.51563L5.6543 10.6934L7.59766 10.6836C7.83203 10.6836 8.04687 10.8398 8.10547 11.0742C8.22266 11.5137 8.4082 11.9336 8.63281 12.334C8.75 12.5391 8.7207 12.793 8.55469 12.959L7.1875 14.3457L8.74023 15.8887L10.1074 14.502C10.2051 14.4043 10.3418 14.3457 10.4785 14.3457C10.9961 14.4727 11.4551 14.834 12.002 14.9316C12.2363 14.9902 12.3926 15.1953 12.3926 15.4297L12.4023 17.3731L14.5898 17.3633L14.5801 15.4102C14.5801 15.1758 14.7363 14.9707 14.9609 14.9121C15.3906 14.7949 15.8203 14.6094 16.2207 14.3848C16.4258 14.2676 16.6797 14.2969 16.8457 14.4629L18.2324 15.8301L19.7754 14.2774L18.3887 12.9102C18.2031 12.7539 18.1738 12.5 18.2813 12.2949ZM13.4375 13.9453C11.0254 13.9453 9.0625 11.9824 9.0625 9.58008C9.28711 3.78906 17.5781 3.78906 17.8027 9.58008C17.8125 11.9824 15.8496 13.9453 13.4375 13.9453Z" fill="#FFD15B"/>
        <path d="M13.4375 5.20508C11.0254 5.20508 9.06249 7.16797 9.06249 9.58008C9.2871 15.3613 17.5879 15.3613 17.8027 9.58008C17.8125 7.16797 15.8496 5.20508 13.4375 5.20508ZM13.4375 12.8906C11.6016 12.8906 10.1172 11.3965 10.1172 9.57031C10.2734 5.17578 16.6113 5.16602 16.7578 9.57031C16.7578 11.4063 15.2734 12.8906 13.4375 12.8906ZM49.58 31.084L42.1875 28.1445C42.0312 28.0371 8.18359 28.1445 7.98828 28.1055C7.92968 28.1152 7.86132 28.125 7.79296 28.1445L0.410155 31.084C-0.117188 31.2891 0.0292961 32.0996 0.605468 32.0899C0.712889 32.0996 5.57617 31.0645 5.68359 31.0547L3.39843 34.375C3.15429 34.6973 3.41797 35.2051 3.82812 35.1953H7.4707V47.8711C7.4707 48.6524 8.0957 49.2774 8.87695 49.2774H41.1426C41.914 49.2774 42.539 48.6524 42.539 47.8711V35.1953H46.1621C46.5722 35.2149 46.8359 34.707 46.5918 34.375L44.2968 31.0449L49.2871 32.0801C49.8828 32.207 50.166 31.3184 49.58 31.084ZM43.6621 29.8535L43.4472 29.8145L43.4082 29.7559L43.6621 29.8535ZM6.59179 29.7559C6.58203 29.7754 6.5625 29.8047 6.55273 29.8145L6.34765 29.8535L6.59179 29.7559ZM41.4843 47.8711C41.4843 48.0664 41.3281 48.2324 41.1328 48.2324H8.86718C8.67187 48.2324 8.51562 48.0664 8.51562 47.8711V35.1953H41.4843V47.8711ZM45.1562 34.1504H4.82422L8.27148 29.1504H41.709L45.1562 34.1504Z" fill="black"/>
        <path d="M45.1563 34.1504H4.83398L8.27148 29.1504H41.709L45.1563 34.1504Z" fill="#8DCCFF"/>
        <path d="M8.51562 35.1953V47.8711C8.51562 48.0664 8.67187 48.2324 8.86718 48.2324H41.1328C41.3281 48.2324 41.4844 48.0664 41.4844 47.8711V35.1953H8.51562ZM37.7929 43.1738C37.7929 43.457 37.5586 43.7012 37.2656 43.7012H12.7344C12.4512 43.7012 12.207 43.4668 12.207 43.1738V38.5254C12.207 38.2422 12.4414 37.998 12.7344 37.998H37.2656C37.5488 37.998 37.7929 38.2324 37.7929 38.5254V43.1738Z" fill="#0182FC"/>
        <path d="M37.2656 38.0078H12.7344C12.4512 38.0078 12.207 38.2422 12.207 38.5352V43.1836C12.207 43.4668 12.4414 43.7109 12.7344 43.7109H37.2656C37.5488 43.7109 37.793 43.4766 37.793 43.1836V38.5352C37.793 38.2422 37.5488 38.0078 37.2656 38.0078ZM36.7383 42.6562H13.252V39.0625H36.7383V42.6562Z" fill="black"/>
        <path d="M13.2519 39.0625H36.7383V42.6563H13.2519V39.0625Z" fill="#FFD15B"/>
        <path d="M48.3984 10.1171C47.793 8.69134 46.1426 8.02728 44.7168 8.62298L43.0371 9.33587C42.4414 8.48627 41.416 8.03705 40.3516 8.22259C40.1758 8.27142 39.5117 8.32025 39.375 8.4472L36.7773 10.3417C36.0645 10.8495 35.957 11.7968 36.377 12.539L35.0781 13.0956L34.7168 12.246C34.4141 11.4941 33.4863 11.123 32.7539 11.455C32.0117 11.7578 31.6309 12.6855 31.9629 13.4179L32.3242 14.2675L31.123 14.7851L30.7617 13.9355C30.459 13.1835 29.5312 12.8124 28.7988 13.1445C28.0469 13.4472 27.6758 14.3749 28.0078 15.1074L28.3691 15.957L27.168 16.4745L26.8066 15.6249C26.5039 14.8828 25.5762 14.5019 24.8437 14.8339C24.082 15.1562 23.7305 16.0351 24.0527 16.7968L24.4141 17.6464L23.2129 18.164L22.8516 17.3144C22.5293 16.5527 21.6504 16.2011 20.8887 16.5234C20.127 16.8456 19.7754 17.7245 20.0977 18.4863L20.459 19.3359L18.6914 20.0878L18.5059 19.6484C18.3984 19.3847 18.0762 19.2577 17.8223 19.3749L15.1074 20.5273C13.3789 21.2304 12.5098 23.3788 13.2715 25.0781C13.9746 26.8163 16.123 27.6757 17.8223 26.914L20.5371 25.7617C20.8008 25.6542 20.9277 25.3417 20.8105 25.0781L20.625 24.6386L22.3926 23.8867L22.7441 24.7363C23.0469 25.4785 23.9746 25.8593 24.7168 25.5273C25.4688 25.2245 25.8398 24.2968 25.5078 23.5644L25.1465 22.7148L26.3477 22.1972L26.709 23.0468C27.0312 23.8183 27.9297 24.1503 28.6719 23.8378C29.4434 23.5156 29.7852 22.6074 29.4629 21.8749L29.1016 21.0253L30.3125 20.5078L30.6641 21.3574C30.9961 22.1288 31.8848 22.4609 32.627 22.1484C33.3887 21.8261 33.7402 20.9472 33.418 20.1757L33.0566 19.3261L34.2578 18.8183L34.6191 19.6679C34.9414 20.4296 35.8398 20.7812 36.582 20.4589C37.3437 20.1367 37.6953 19.2577 37.373 18.496L37.0215 17.6464L38.3203 17.0898C38.5644 17.9003 39.3359 18.496 40.1855 18.3203L43.3496 17.7636C43.5351 17.7441 44.043 17.3144 44.1992 17.2167C45.0586 16.582 45.4492 15.5273 45.2539 14.5117L46.9336 13.7988C48.3398 13.1933 49.0039 11.5429 48.3984 10.1171ZM17.3926 25.9277C14.4141 27.0995 12.5781 22.7929 15.4883 21.4648L17.7148 20.5175C17.9785 21.1328 19.3457 24.3652 19.6191 24.9804L17.3926 25.9277ZM20.1953 23.6523L19.082 21.0351L20.8496 20.2831C20.9082 20.4101 21.9434 22.8613 21.9629 22.9101L20.1953 23.6523ZM24.5215 24.2968C24.3848 24.6581 23.8281 24.6777 23.6914 24.3066L21.0352 18.0566C20.8105 17.5195 21.6309 17.1581 21.8652 17.705L24.5215 23.9452C24.5703 24.0624 24.5703 24.1796 24.5215 24.2968ZM24.7168 21.7285L23.6035 19.1113L24.8047 18.5937L25.918 21.2109L24.7168 21.7285ZM28.2422 22.8613C28.0078 22.9589 27.7539 22.8515 27.6465 22.6171C27.3242 21.8554 25.8398 18.3788 25.5566 17.705L24.9902 16.3769C24.7559 15.8398 25.5859 15.4882 25.8203 16.0253L28.4766 22.2753C28.5742 22.4999 28.4668 22.7636 28.2422 22.8613ZM28.6719 20.0488C28.6133 19.9218 27.5781 17.4706 27.5586 17.4218L28.7598 16.9042C29.043 17.5585 29.5996 18.8769 29.873 19.5312L28.6719 20.0488ZM32.1973 21.1718C31.9727 21.2695 31.709 21.162 31.6113 20.9374L31.0547 19.6093H31.0449L29.5215 16.0253L28.9551 14.6972C28.8281 14.414 29.0527 14.0527 29.3652 14.0722C29.541 14.0722 29.707 14.1796 29.7754 14.3456L32.4316 20.5956C32.5293 20.8105 32.4219 21.0742 32.1973 21.1718ZM32.627 18.3593L31.5137 15.7421L32.7148 15.2245L33.8281 17.8515L32.627 18.3593ZM36.1621 19.4921C35.9375 19.5898 35.6641 19.4824 35.5664 19.248L34.2383 16.123L33.4766 14.3359L32.9102 13.0077C32.8613 12.9003 32.8613 12.7734 32.9004 12.666C33.0371 12.3046 33.5937 12.2949 33.7305 12.6562L34.2969 13.9843L35.2344 16.1913L36.3867 18.9062C36.4941 19.1308 36.3867 19.3945 36.1621 19.4921ZM36.5918 16.6796C36.3379 16.0742 35.7422 14.6777 35.4785 14.0527L36.7871 13.5058L37.9004 16.123L36.5918 16.6796ZM39.9805 17.2851C39.7266 17.3339 39.4922 17.1972 39.3848 16.9628L37.207 11.8359C37.1094 11.6015 37.1777 11.3378 37.3828 11.1913L39.4531 9.68744L42.5 16.8456L39.9805 17.2851ZM43.5644 16.3671L43.4668 16.4355L40.6152 9.7265L40.4199 9.27728C41.2109 9.09173 42.0215 9.48236 42.3437 10.2343L44.1113 14.3847C44.4141 15.0976 44.1894 15.9081 43.5644 16.3671ZM46.5039 12.832L44.8828 13.5253L43.4961 10.2831L45.1172 9.58978C47.2851 8.74017 48.6133 11.8749 46.5039 12.832Z" fill="black"/>
        <path d="M47.4316 10.5273C47.0508 9.62882 46.0156 9.20889 45.1269 9.58975L43.5058 10.2831L44.8926 13.5253L46.5137 12.8319C47.3926 12.4511 47.8125 11.4159 47.4316 10.5273ZM46.3476 12.5194C44.5996 13.203 43.5351 10.6933 45.2344 9.90225C46.9726 9.22842 48.0469 11.748 46.3476 12.5194ZM19.4336 24.5507C19.3359 24.3261 17.7441 20.5761 17.7148 20.5175L15.4883 21.4648C14.2773 21.953 13.6719 23.4569 14.209 24.6483C14.6973 25.8593 16.2012 26.4648 17.3926 25.9276L19.6191 24.9706L19.4336 24.5507ZM17.1191 25.2343C15.0684 26.0448 13.7891 23.0663 15.8008 22.1483C17.8613 21.328 19.1308 24.2968 17.1191 25.2343Z" fill="#E2DEE2"/>
        <path d="M24.5215 24.297C24.3848 24.6583 23.8281 24.6778 23.6914 24.3067L21.0352 18.0567C20.8106 17.5196 21.6309 17.1583 21.8652 17.7052L24.5215 23.9454C24.5703 24.0626 24.5703 24.1798 24.5215 24.297ZM28.2422 22.8614C28.0078 22.9591 27.7539 22.8517 27.6465 22.6173C27.3242 21.8556 25.8399 18.379 25.5567 17.7052L24.9902 16.3771C24.7559 15.8399 25.5859 15.4884 25.8203 16.0255L28.4766 22.2755C28.5742 22.5001 28.4668 22.7638 28.2422 22.8614ZM32.1973 21.172C31.9727 21.2696 31.709 21.1622 31.6113 20.9376L31.0547 19.6095H31.0449L29.5215 16.0255L28.9551 14.6974C28.8281 14.4142 29.0527 14.0528 29.3652 14.0724C29.541 14.0724 29.707 14.1798 29.7754 14.3458L32.4316 20.5958C32.5293 20.8107 32.4219 21.0743 32.1973 21.172ZM36.1621 19.4923C35.9375 19.5899 35.6641 19.4825 35.5664 19.2482L34.2383 16.1232L33.4766 14.336L32.9102 13.0079C32.8613 12.9005 32.8613 12.7735 32.9004 12.6661C33.0371 12.3048 33.5938 12.295 33.7305 12.6564L34.2969 13.9845L35.2344 16.1915L36.3867 18.9064C36.4941 19.131 36.3867 19.3946 36.1621 19.4923ZM42.5098 16.8458L39.9902 17.2853C39.7363 17.3341 39.502 17.1974 39.3945 16.963L37.2168 11.836C37.1191 11.6017 37.1875 11.338 37.3926 11.1915L39.4629 9.6876L42.5098 16.8458ZM43.5645 16.3673L43.4668 16.4357L40.6152 9.72666L40.4199 9.27744C41.2109 9.0919 42.0215 9.48252 42.3438 10.2345L44.1113 14.3849C44.4141 15.0978 44.1895 15.9083 43.5645 16.3673Z" fill="#FD4755"/>
        <path d="M37.8906 16.123L36.5918 16.6797C36.3379 16.0742 35.7422 14.6777 35.4785 14.0527L36.7871 13.5059L37.8906 16.123ZM33.8379 17.8516L32.627 18.3594L31.5137 15.7422L32.7246 15.2344L33.8379 17.8516ZM29.8731 19.5312L28.6719 20.0488C28.6133 19.9219 27.5781 17.4707 27.5586 17.4219L28.7598 16.9043C29.043 17.5586 29.5996 18.877 29.8731 19.5312ZM23.5976 19.1125L24.8015 18.5996L25.9154 21.2141L24.7115 21.7269L23.5976 19.1125ZM21.9531 22.9004L20.1856 23.6523L19.0723 21.0352L20.8398 20.2832C20.8984 20.4004 21.9336 22.8613 21.9531 22.9004Z" fill="#554E56"/>
        <path d="M18.0078 23.0273C17.0996 21.0156 14.1113 22.2851 14.9219 24.3457C15.8594 26.3574 18.8086 25.0781 18.0078 23.0273ZM16.7188 24.2675C15.957 24.58 15.4688 23.4374 16.2207 23.1152C16.9824 22.7929 17.4609 23.9257 16.7188 24.2675ZM47.0899 10.664C46.3086 8.95502 43.7988 10.039 44.4824 11.7773C45.2539 13.4765 47.7832 12.4023 47.0899 10.664ZM45.9375 11.5624C45.4785 11.7382 45.2051 11.0839 45.6543 10.8788C46.084 10.6933 46.3867 11.3671 45.9375 11.5624Z" fill="black"/>
    </g>
    <defs>
        <clipPath id="clip0_491_5238">
            <rect width="50" height="50" fill="white"/>
        </clipPath>
    </defs>
</svg>
