<svg width="22" height="20" viewBox="0 0 22 20" fill="none" xmlns="http://www.w3.org/2000/svg">
    <path d="M13.4939 4.16675C13.4939 2.78604 12.2856 1.66675 10.7951 1.66675C9.3046 1.66675 8.09631 2.78604 8.09631 4.16675V9.16675C8.09631 10.5475 9.3046 11.6667 10.7951 11.6667C12.2856 11.6667 13.4939 10.5475 13.4939 9.16675V4.16675Z" stroke="#A1A5C1" stroke-width="1.3"/>
    <path d="M4.49796 8.3335V9.16683C4.49796 10.7139 5.1614 12.1977 6.34235 13.2916C7.52329 14.3856 9.12499 15.0002 10.7951 15.0002C12.4652 15.0002 14.0669 14.3856 15.2479 13.2916C16.4288 12.1977 17.0922 10.7139 17.0922 9.16683V8.3335" stroke="#A1A5C1" stroke-width="1.3" stroke-linecap="round" stroke-linejoin="round"/>
    <path d="M10.7951 18.3333H13.4939M10.7951 15V18.3333V15ZM10.7951 18.3333H8.09631H10.7951Z" stroke="#A1A5C1" stroke-width="1.3" stroke-linecap="round" stroke-linejoin="round"/>
</svg>
