<svg width="22" height="22" viewBox="0 0 22 22" fill="none" xmlns="http://www.w3.org/2000/svg">
    <path d="M3.66667 7.79159H5.27083M5.27083 7.79159C5.69628 7.79159 6.10431 7.96059 6.40515 8.26143C6.70599 8.56227 6.875 8.9703 6.875 9.39575C6.875 9.8212 6.70599 10.2292 6.40515 10.5301C6.10431 10.8309 5.69628 10.9999 5.27083 10.9999H2.75M5.27083 7.79159C5.69628 7.79159 6.10431 7.62258 6.40515 7.32174C6.70599 7.0209 6.875 6.61287 6.875 6.18742C6.875 5.76197 6.70599 5.35394 6.40515 5.0531C6.10431 4.75226 5.69628 4.58325 5.27083 4.58325H2.75" stroke="#252B5C" stroke-width="1.4" stroke-linecap="round" stroke-linejoin="round"/>
    <path d="M19.8 14.3C19.8 16.5735 16.5674 18.4439 12.4207 18.6758M3.30005 14.3C3.30005 16.5314 6.41413 18.3745 10.45 18.6613L7.15005 20.9M10.45 18.7L8.25005 15.62" stroke="#252B5C" stroke-width="1.4" stroke-linecap="round" stroke-linejoin="round"/>
    <path d="M12.8334 4.58325H11.9167C11.1874 4.58325 10.4879 4.87298 9.9722 5.38871C9.45648 5.90443 9.16675 6.60391 9.16675 7.33325V9.16659M9.16675 9.16659C9.16675 9.65282 9.3599 10.1191 9.70372 10.4629C10.0475 10.8068 10.5139 10.9999 11.0001 10.9999H11.4584C11.9446 10.9999 12.411 10.8068 12.7548 10.4629C13.0986 10.1191 13.2917 9.65282 13.2917 9.16659V8.70825C13.2917 8.22202 13.0986 7.75571 12.7548 7.41189C12.411 7.06807 11.9446 6.87492 11.4584 6.87492H11.0001C10.5139 6.87492 10.0475 7.06807 9.70372 7.41189C9.3599 7.75571 9.16675 8.22202 9.16675 8.70825V9.16659Z" stroke="#252B5C" stroke-width="1.4" stroke-linecap="round" stroke-linejoin="round"/>
    <path d="M15.5833 7.79159V6.41659C15.5833 5.93035 15.7764 5.46404 16.1202 5.12022C16.464 4.77641 16.9304 4.58325 17.4166 4.58325H17.8749C18.3611 4.58325 18.8275 4.77641 19.1713 5.12022C19.5151 5.46404 19.7083 5.93035 19.7083 6.41659V9.16659C19.7083 9.65282 19.5151 10.1191 19.1713 10.4629C18.8275 10.8068 18.3611 10.9999 17.8749 10.9999H17.4166C16.9304 10.9999 16.464 10.8068 16.1202 10.4629C15.7764 10.1191 15.5833 9.65282 15.5833 9.16659V7.79159Z" stroke="#252B5C" stroke-width="1.4" stroke-linecap="round" stroke-linejoin="round"/>
    <ellipse cx="19.25" cy="1.6501" rx="0.549999" ry="0.55" fill="#252B5C" stroke="#252B5C" stroke-width="1.4"/>
</svg>
