<svg width="20" height="20" viewBox="0 0 20 20" fill="none" xmlns="http://www.w3.org/2000/svg">
    <path d="M9.99992 1.66675C5.55825 5.45841 3.33325 8.73341 3.33325 11.5001C3.33325 15.6501 6.49992 18.3334 9.99992 18.3334C13.4999 18.3334 16.6666 15.6501 16.6666 11.5001C16.6666 8.73341 14.4416 5.45841 9.99992 1.66675ZM6.52492 11.6667C6.83325 11.6667 7.08325 11.8834 7.14158 12.1834C7.48325 14.0334 9.04158 14.6667 10.1749 14.5751C10.5333 14.5584 10.8333 14.8417 10.8333 15.2001C10.8333 15.5334 10.5666 15.8084 10.2333 15.8251C8.45825 15.9334 6.38325 14.9167 5.90825 12.3917C5.89377 12.3024 5.89887 12.211 5.92319 12.1238C5.94751 12.0366 5.99048 11.9558 6.04912 11.8868C6.10777 11.8179 6.18068 11.7625 6.26283 11.7245C6.34498 11.6865 6.43441 11.6668 6.52492 11.6667Z" fill="#1544AB"/>
</svg>
