<svg width="11" height="12" viewBox="0 0 11 12" fill="none" xmlns="http://www.w3.org/2000/svg">
    <path d="M9.17999 4.23185L9.18 4.23399C9.18115 4.74996 8.98303 5.24605 8.62764 5.61829C8.28051 5.97928 7.94134 6.34059 7.60435 6.69957C6.93449 7.41315 6.27324 8.11756 5.57525 8.792C5.53118 8.83286 5.46158 8.83043 5.42088 8.78814L2.37165 5.61809C2.37164 5.61808 2.37164 5.61808 2.37163 5.61807C1.63608 4.85325 1.63619 3.61245 2.37158 2.84816L2.37378 2.84585C2.545 2.66561 2.75085 2.52221 2.97881 2.42425C3.20676 2.3263 3.45211 2.27581 3.70001 2.27581C3.94792 2.27581 4.19327 2.3263 4.42122 2.42425C4.64918 2.52221 4.85503 2.66561 5.02625 2.84585L5.02623 2.84587L5.0295 2.84924L5.14069 2.96411C5.23499 3.06153 5.36482 3.11648 5.50041 3.11635C5.63601 3.11622 5.76573 3.06103 5.85986 2.96343L5.97063 2.84856L5.97063 2.84857L5.97247 2.84665C6.1443 2.66656 6.35053 2.52319 6.57875 2.42506C6.80677 2.32702 7.05211 2.27613 7.30011 2.27539C7.79649 2.27557 8.27391 2.47972 8.62715 2.84739C8.98276 3.21959 9.18106 3.71576 9.17999 4.23185Z" stroke="#1544AB" stroke-linejoin="round"/>
</svg>
