<svg width="12" height="12" viewBox="0 0 12 12" fill="none" xmlns="http://www.w3.org/2000/svg">
    <path d="M10 5C10 7.209 6 11 6 11C6 11 2 7.209 2 5C2 3.93913 2.42143 2.92172 3.17157 2.17157C3.92172 1.42143 4.93913 1 6 1C7.06087 1 8.07828 1.42143 8.82843 2.17157C9.57857 2.92172 10 3.93913 10 5Z" fill="#1F4C6B"/>
    <path d="M5.9999 5.39995C6.15903 5.39995 6.31164 5.33674 6.42417 5.22422C6.53669 5.11169 6.5999 4.95908 6.5999 4.79995C6.5999 4.64082 6.53669 4.48821 6.42417 4.37569C6.31164 4.26317 6.15903 4.19995 5.9999 4.19995C5.84077 4.19995 5.68816 4.26317 5.57564 4.37569C5.46312 4.48821 5.3999 4.64082 5.3999 4.79995C5.3999 4.95908 5.46312 5.11169 5.57564 5.22422C5.68816 5.33674 5.84077 5.39995 5.9999 5.39995Z" fill="white" stroke="white" stroke-width="1.25" stroke-linecap="round" stroke-linejoin="round"/>
</svg>
