<svg width="20" height="20" viewBox="0 0 20 20" fill="none" xmlns="http://www.w3.org/2000/svg">
    <path d="M6.24968 2.08333C6.24968 1.6231 5.87658 1.25 5.41634 1.25C4.9561 1.25 4.58301 1.6231 4.58301 2.08333V2.91667C4.58301 3.3769 4.9561 3.75 5.41634 3.75C5.87658 3.75 6.24968 3.3769 6.24968 2.91667V2.08333Z" fill="#1544AB"/>
    <path d="M15.4167 2.08333C15.4167 1.6231 15.0436 1.25 14.5833 1.25C14.1231 1.25 13.75 1.6231 13.75 2.08333V2.91667C13.75 3.3769 14.1231 3.75 14.5833 3.75C15.0436 3.75 15.4167 3.3769 15.4167 2.91667V2.08333Z" fill="#1544AB"/>
    <path d="M1.6665 7.5V17.0833C1.6665 17.5254 1.8421 17.9493 2.15466 18.2618C2.46722 18.5744 2.89114 18.75 3.33317 18.75H16.6665C17.1085 18.75 17.5325 18.5744 17.845 18.2618C18.1576 17.9493 18.3332 17.5254 18.3332 17.0833V7.5H1.6665ZM6.6665 15.8333C6.6665 16.0543 6.57871 16.2663 6.42243 16.4226C6.26615 16.5789 6.05418 16.6667 5.83317 16.6667H4.99984C4.77882 16.6667 4.56686 16.5789 4.41058 16.4226C4.2543 16.2663 4.1665 16.0543 4.1665 15.8333V15C4.1665 14.779 4.2543 14.567 4.41058 14.4107C4.56686 14.2545 4.77882 14.1667 4.99984 14.1667H5.83317C6.05418 14.1667 6.26615 14.2545 6.42243 14.4107C6.57871 14.567 6.6665 14.779 6.6665 15V15.8333ZM6.6665 11.25C6.6665 11.471 6.57871 11.683 6.42243 11.8393C6.26615 11.9955 6.05418 12.0833 5.83317 12.0833H4.99984C4.77882 12.0833 4.56686 11.9955 4.41058 11.8393C4.2543 11.683 4.1665 11.471 4.1665 11.25V10.4167C4.1665 10.1957 4.2543 9.98369 4.41058 9.82741C4.56686 9.67113 4.77882 9.58333 4.99984 9.58333H5.83317C6.05418 9.58333 6.26615 9.67113 6.42243 9.82741C6.57871 9.98369 6.6665 10.1957 6.6665 10.4167V11.25ZM11.2498 15.8333C11.2498 16.0543 11.162 16.2663 11.0058 16.4226C10.8495 16.5789 10.6375 16.6667 10.4165 16.6667H9.58317C9.36216 16.6667 9.1502 16.5789 8.99392 16.4226C8.83763 16.2663 8.74984 16.0543 8.74984 15.8333V15C8.74984 14.779 8.83763 14.567 8.99392 14.4107C9.1502 14.2545 9.36216 14.1667 9.58317 14.1667H10.4165C10.6375 14.1667 10.8495 14.2545 11.0058 14.4107C11.162 14.567 11.2498 14.779 11.2498 15V15.8333ZM11.2498 11.25C11.2498 11.471 11.162 11.683 11.0058 11.8393C10.8495 11.9955 10.6375 12.0833 10.4165 12.0833H9.58317C9.36216 12.0833 9.1502 11.9955 8.99392 11.8393C8.83763 11.683 8.74984 11.471 8.74984 11.25V10.4167C8.74984 10.1957 8.83763 9.98369 8.99392 9.82741C9.1502 9.67113 9.36216 9.58333 9.58317 9.58333H10.4165C10.6375 9.58333 10.8495 9.67113 11.0058 9.82741C11.162 9.98369 11.2498 10.1957 11.2498 10.4167V11.25ZM15.8332 15.8333C15.8332 16.0543 15.7454 16.2663 15.5891 16.4226C15.4328 16.5789 15.2209 16.6667 14.9998 16.6667H14.1665C13.9455 16.6667 13.7335 16.5789 13.5772 16.4226C13.421 16.2663 13.3332 16.0543 13.3332 15.8333V15C13.3332 14.779 13.421 14.567 13.5772 14.4107C13.7335 14.2545 13.9455 14.1667 14.1665 14.1667H14.9998C15.2209 14.1667 15.4328 14.2545 15.5891 14.4107C15.7454 14.567 15.8332 14.779 15.8332 15V15.8333ZM15.8332 11.25C15.8332 11.471 15.7454 11.683 15.5891 11.8393C15.4328 11.9955 15.2209 12.0833 14.9998 12.0833H14.1665C13.9455 12.0833 13.7335 11.9955 13.5772 11.8393C13.421 11.683 13.3332 11.471 13.3332 11.25V10.4167C13.3332 10.1957 13.421 9.98369 13.5772 9.82741C13.7335 9.67113 13.9455 9.58333 14.1665 9.58333H14.9998C15.2209 9.58333 15.4328 9.67113 15.5891 9.82741C15.7454 9.98369 15.8332 10.1957 15.8332 10.4167V11.25ZM18.3332 6.66667V4.16667C18.3332 3.72464 18.1576 3.30072 17.845 2.98816C17.5325 2.67559 17.1085 2.5 16.6665 2.5H16.2498V2.91667C16.2498 3.83583 15.5023 4.58333 14.5832 4.58333C13.664 4.58333 12.9165 3.83583 12.9165 2.91667V2.5H7.08317V2.91667C7.08317 3.83583 6.33567 4.58333 5.4165 4.58333C4.49734 4.58333 3.74984 3.83583 3.74984 2.91667V2.5H3.33317C2.89114 2.5 2.46722 2.67559 2.15466 2.98816C1.8421 3.30072 1.6665 3.72464 1.6665 4.16667V6.66667H18.3332Z" fill="#1544AB"/>
</svg>
