<svg width="11" height="12" viewBox="0 0 11 12" fill="none" xmlns="http://www.w3.org/2000/svg">
    <path d="M9.28 4.23377L9.28 4.23205C9.28112 3.69019 9.07292 3.16918 8.69944 2.77829C8.32764 2.3912 7.8242 2.17553 7.29999 2.17539C7.03845 2.17615 6.77972 2.22981 6.53926 2.33319C6.29864 2.43665 6.08125 2.58779 5.90012 2.77761L5.89866 2.77915L5.89865 2.77915L5.78788 2.89402C5.71258 2.9721 5.6088 3.01625 5.50033 3.01635C5.39185 3.01645 5.28799 2.9725 5.21255 2.89456L5.10136 2.77969L5.09874 2.77699L5.09876 2.77698C4.91821 2.58692 4.70113 2.43569 4.46071 2.33237C4.22029 2.22906 3.9615 2.17581 3.70002 2.17581C3.43854 2.17581 3.17975 2.22906 2.93933 2.33237C2.69891 2.43569 2.48183 2.58692 2.30129 2.77698L2.29952 2.77883C1.52687 3.58184 1.52678 4.88387 2.29957 5.68739L9.28 4.23377ZM9.28 4.23377C9.28121 4.77555 9.07317 5.29653 8.69986 5.68747C8.35451 6.04661 8.01618 6.40701 7.67954 6.76561C7.00842 7.48052 6.34403 8.18826 5.64413 8.86451C5.56032 8.94313 5.42782 8.93947 5.34891 8.85756C5.34889 8.85753 5.34886 8.85751 5.34884 8.85748L2.29958 5.68741L9.28 4.23377Z" fill="white" stroke="white" stroke-width="0.8" stroke-linejoin="round"/>
</svg>
